<svg xmlns="http://www.w3.org/2000/svg" viewBox="0 0 110.85 124.42"><defs><style>.cls-3{opacity:.91;fill:#1d1d26;stroke:#fff;stroke-miterlimit:10;stroke-width:2px}</style><linearGradient id="Dégradé_sans_nom_111" y1="88.09" x2="110.85" y2="88.09" gradientUnits="userSpaceOnUse"><stop offset=".08" stop-color="#fff" stop-opacity=".35"/><stop offset="1" stop-color="#cfcfcf"/></linearGradient></defs><g id="Calque_2" data-name="Calque 2"><g id="Light"><path id="Fond" d="M3 28.22L48.87 1.76a13.07 13.07 0 0 1 13.13 0l42.3 24.42a13.13 13.13 0 0 1 6.57 11.38v50.52a10.21 10.21 0 0 1-5.1 8.84L60.53 123a10.18 10.18 0 0 1-10.21 0L5.11 96.92A10.2 10.2 0 0 1 0 88.08V33.47a6.09 6.09 0 0 1 3-5.25z" fill="#fff"/><path id="Fond_Bas" d="M0 61.16S23.28 67 59.14 54.33c21.55-7.64 51.71 4.17 51.71 4.17v29.68a10.44 10.44 0 0 1-5.22 9l-44.44 25.69a11.48 11.48 0 0 1-11.53 0L5.34 97.29A10.67 10.67 0 0 1 0 88z" fill="url(#Dégradé_sans_nom_111)" opacity=".91"/><circle class="cls-3" cx="55.43" cy="62.2" r="6"/><circle class="cls-3" cx="40.5" cy="62.2" r="6"/><circle class="cls-3" cx="70.35" cy="62.2" r="6"/></g></g></svg>