<svg width="24" height="24" xmlns="http://www.w3.org/2000/svg"><path d="M11.998895 0C5.373277 0 0 5.372541 0 12.000368c0 5.301821 3.438043 9.799196 8.206513 11.385985.600387.110501.819178-.260045.819178-.578286 0-.284355-.010313-1.039443-.016206-2.040579-3.337856.724884-4.042113-1.608889-4.042113-1.608889-.545873-1.386414-1.332638-1.755487-1.332638-1.755487-1.089536-.744037.082507-.729304.082507-.729304 1.204457.084717 1.837994 1.236871 1.837994 1.236871 1.070383 1.833573 2.808926 1.303907 3.492557.996715.109027-.774977.419165-1.303907.761717-1.603732-2.664538-.302772-5.466098-1.332638-5.466098-5.930937 0-1.309801.467786-2.381657 1.235397-3.219989-.12376-.303508-.535559-1.524172.117868-3.175788 0 0 1.007029-.322661 3.299549 1.230241.956935-.266675 1.983854-.399276 3.004143-.404433 1.019553.005157 2.045735.137758 3.004144.404433 2.291046-1.552902 3.296602-1.230241 3.296602-1.230241.654901 1.651616.243102 2.87228.120078 3.175788.769084.838332 1.233187 1.910188 1.233187 3.219989 0 4.610086-2.80598 5.624482-5.478622 5.92136.430216.370546.814022 1.102796.814022 2.222536 0 1.603733-.014734 2.898063-.014734 3.291446 0 .321188.216582.69468.825072.57755C20.564904 21.795144 24 17.300715 24 12.000368 24 5.372541 18.626723 0 11.998895 0" fill="#FFF" fill-rule="evenodd"/></svg>