<svg width="18" height="18" xmlns="http://www.w3.org/2000/svg"><path d="M2.144077 0c1.182461 0 2.142692.960231 2.142692 2.143385 0 1.183846-.960231 2.144077-2.142692 2.144077C.956769 4.287462 0 3.327231 0 2.143385 0 .960231.956769 0 2.144077 0zM.293538 5.912308h3.699693v11.893846H.293538V5.912308zm5.937231-.078923H9.774v1.62623h.050538c.492924-.935307 1.699616-1.921153 3.498231-1.921153 3.741923 0 4.433539 2.462538 4.433539 5.665846v6.522923h-3.695539V11.943c0-1.379077-.024231-3.153462-1.921154-3.153462-1.92323 0-2.216769 1.503-2.216769 3.055154v5.882539H6.230769V5.833385z" fill="#FFF" fill-rule="evenodd"/></svg>