<svg id="Calque_1" xmlns="http://www.w3.org/2000/svg" viewBox="0 0 128 128"><style>.st2{display:none;opacity:.53;fill:#382799}</style><circle id="Oval-3" cx="64" cy="64" r="47" fill-rule="evenodd" clip-rule="evenodd" fill="#e5e1f9"/><path class="st2" d="M81.69 79.52l-8.99-9.35c2.31-2.75 3.58-6.21 3.58-9.81 0-8.41-6.84-15.26-15.26-15.26s-15.26 6.84-15.26 15.26 6.84 15.26 15.26 15.26c3.16 0 6.17-.95 8.74-2.76l9.06 9.42c.38.39.89.61 1.43.61.52 0 1.01-.2 1.38-.56.79-.75.82-2.01.06-2.81zM61.02 49.09c6.22 0 11.28 5.06 11.28 11.28s-5.06 11.28-11.28 11.28-11.28-5.06-11.28-11.28 5.06-11.28 11.28-11.28z"/><path class="st2" d="M72.45 69.12h-1.81l-.68-.57c2.15-2.61 3.52-5.91 3.52-9.66 0-8.19-6.58-14.78-14.74-14.78-8.05 0-14.63 6.59-14.63 14.78s6.58 14.78 14.74 14.78c3.63 0 7.03-1.36 9.64-3.52l.68.57v1.82L80.5 83.9l3.4-3.41-11.45-11.37zm-13.61 0c-5.67 0-10.2-4.55-10.2-10.23 0-5.69 4.54-10.23 10.2-10.23 5.67 0 10.2 4.55 10.2 10.23.01 5.68-4.53 10.23-10.2 10.23z"/><path d="M77.07 59.95l7.08-4.05L64 44.46 43.85 55.9l7.08 4.05-7.08 4.02 7.08 4.05-7.08 4.02L64 83.54l20.15-11.51-7.08-4.02 7.08-4.05-7.08-4.01zM64 46.14l17.18 9.76L64 65.72 46.82 55.9 64 46.14zM52.41 60.79L64 67.41l11.59-6.62 5.6 3.18L64 73.79l-17.18-9.82 5.59-3.18zm28.77 11.24L64 81.85l-17.18-9.82 5.6-3.18L64 75.48l11.59-6.62 5.59 3.17z" fill="#382799" opacity=".53"/></svg>