<svg width="23" height="19" xmlns="http://www.w3.org/2000/svg"><path d="M7.1843393 18.565972c8.6210201 0 13.3355206-7.142124 13.3355206-13.335521 0-.202862-.0041319-.404803-.0132312-.605833.9151497-.661578 1.7105588-1.487175 2.3379323-2.427009-.8397944.373281-1.743522.624568-2.6915582.737877.9676608-.580252 1.7105588-1.498138 2.0610417-2.592362-.9055674.536847-1.9084145.927031-2.9761914 1.137689C18.3825737.569803 17.1649293 0 15.8166588 0c-2.5882991 0-4.6872101 2.098988-4.6872101 4.68629 0 .367793.0411196.725543.1215345 1.068697C7.3555791 5.558979 3.9014217 3.693945 1.5897066.858039 1.1871879 1.55068.9550888 2.355257.9550888 3.213756c0 1.626081.8274524 3.061589 2.0857257 3.901384-.7689618-.023758-1.4913153-.234844-2.1226751-.586193-.0006899.019664-.0006899.038836-.0006899.059853 0 2.269859 1.6155788 4.165012 3.7601783 4.594453-.3938409.107368-.808211.164939-1.2358891.164939-.301544 0-.5953302-.02968-.8808833-.084524.5966948 1.862266 2.3269702 3.217436 4.3783528 3.255305-1.6041567 1.257353-3.6249526 2.006231-5.82122 2.006231-.3778499 0-.7511234-.021492-1.1179882-.064879 2.0743036 1.329565 4.5373427 2.10535 7.1845922 2.10535" fill-rule="nonzero" fill="#FFF"/></svg>