<svg xmlns="http://www.w3.org/2000/svg" viewBox="0 0 128 128"><circle cx="64" cy="64" r="47" fill-rule="evenodd" clip-rule="evenodd" fill="#e5e1f9"/><path d="M72.45 69.12h-1.81l-.68-.57c2.15-2.61 3.52-5.91 3.52-9.66 0-8.19-6.58-14.78-14.74-14.78-8.05 0-14.63 6.59-14.63 14.78s6.58 14.78 14.74 14.78c3.63 0 7.03-1.36 9.64-3.52l.68.57v1.82L80.5 83.9l3.4-3.41-11.45-11.37zm-13.61 0c-5.67 0-10.2-4.55-10.2-10.23 0-5.69 4.54-10.23 10.2-10.23 5.67 0 10.2 4.55 10.2 10.23.01 5.68-4.53 10.23-10.2 10.23z" opacity=".53" fill="#382799"/></svg>