<svg xmlns="http://www.w3.org/2000/svg" width="509.391" height="407.143" viewBox="0 0 509.391 407.143">
  <g id="Groupe_194" data-name="Groupe 194" transform="translate(0 0)">
    <rect id="Rectangle_1834" data-name="Rectangle 1834" width="46.193" height="13.965" rx="6.983" transform="translate(104.133 69.827)" fill="#4c6cf6" opacity="0.1"/>
    <rect id="Rectangle_1835" data-name="Rectangle 1835" width="46.193" height="13.965" rx="6.983" transform="translate(152.475 83.792)" fill="#6c63ff" opacity="0.1"/>
    <rect id="Rectangle_1836" data-name="Rectangle 1836" width="46.193" height="13.965" rx="6.983" transform="translate(200.816 97.757)" fill="#6c63ff" opacity="0.1"/>
    <rect id="Rectangle_1837" data-name="Rectangle 1837" width="46.193" height="13.965" rx="6.983" transform="translate(104.133 48.879)" fill="#4c6cf6" opacity="0.1"/>
    <rect id="Rectangle_1838" data-name="Rectangle 1838" width="46.193" height="13.965" rx="6.983" transform="translate(152.475 62.844)" fill="#4c6cf6" opacity="0.1"/>
    <rect id="Rectangle_1839" data-name="Rectangle 1839" width="46.193" height="13.965" rx="6.983" transform="translate(200.816 76.809)" fill="#6c63ff" opacity="0.1"/>
    <rect id="Rectangle_1840" data-name="Rectangle 1840" width="46.193" height="13.965" rx="6.983" transform="translate(254.529 69.827)" fill="#4c6cf6" opacity="0.1"/>
    <rect id="Rectangle_1841" data-name="Rectangle 1841" width="46.193" height="13.965" rx="6.983" transform="translate(302.871 83.792)" fill="#6c63ff" opacity="0.1"/>
    <rect id="Rectangle_1842" data-name="Rectangle 1842" width="46.193" height="13.965" rx="6.983" transform="translate(351.212 97.757)" fill="#6c63ff" opacity="0.1"/>
    <rect id="Rectangle_1843" data-name="Rectangle 1843" width="46.193" height="13.965" rx="6.983" transform="translate(254.529 48.879)" fill="#4c6cf6" opacity="0.1"/>
    <rect id="Rectangle_1844" data-name="Rectangle 1844" width="46.193" height="13.965" rx="6.983" transform="translate(302.871 62.844)" fill="#4c6cf6" opacity="0.1"/>
    <rect id="Rectangle_1845" data-name="Rectangle 1845" width="46.193" height="13.965" rx="6.983" transform="translate(351.212 76.809)" fill="#6c63ff" opacity="0.1"/>
    <rect id="Rectangle_1846" data-name="Rectangle 1846" width="46.193" height="13.965" rx="6.983" transform="translate(104.133 20.948)" fill="#4c6cf6" opacity="0.1"/>
    <rect id="Rectangle_1847" data-name="Rectangle 1847" width="46.193" height="13.965" rx="6.983" transform="translate(152.475 34.913)" fill="#4c6cf6" opacity="0.1"/>
    <rect id="Rectangle_1848" data-name="Rectangle 1848" width="46.193" height="13.965" rx="6.983" transform="translate(200.816 48.879)" fill="#4c6cf6" opacity="0.1"/>
    <rect id="Rectangle_1849" data-name="Rectangle 1849" width="46.193" height="13.965" rx="6.983" transform="translate(104.133)" fill="#4c6cf6" opacity="0.1"/>
    <rect id="Rectangle_1850" data-name="Rectangle 1850" width="46.193" height="13.965" rx="6.983" transform="translate(152.475 13.965)" fill="#4c6cf6" opacity="0.1"/>
    <rect id="Rectangle_1851" data-name="Rectangle 1851" width="46.193" height="13.965" rx="6.983" transform="translate(200.816 27.931)" fill="#4c6cf6" opacity="0.1"/>
    <rect id="Rectangle_1852" data-name="Rectangle 1852" width="46.193" height="13.965" rx="6.983" transform="translate(254.529 20.948)" fill="#4c6cf6" opacity="0.1"/>
    <rect id="Rectangle_1853" data-name="Rectangle 1853" width="46.193" height="13.965" rx="6.983" transform="translate(302.871 34.913)" fill="#4c6cf6" opacity="0.1"/>
    <rect id="Rectangle_1854" data-name="Rectangle 1854" width="46.193" height="13.965" rx="6.983" transform="translate(351.212 48.879)" fill="#4c6cf6" opacity="0.1"/>
    <rect id="Rectangle_1855" data-name="Rectangle 1855" width="46.193" height="13.965" rx="6.983" transform="translate(254.529)" fill="#4c6cf6" opacity="0.1"/>
    <rect id="Rectangle_1856" data-name="Rectangle 1856" width="46.193" height="13.965" rx="6.983" transform="translate(302.871 13.965)" fill="#4c6cf6" opacity="0.1"/>
    <rect id="Rectangle_1857" data-name="Rectangle 1857" width="46.193" height="13.965" rx="6.983" transform="translate(351.212 27.931)" fill="#4c6cf6" opacity="0.1"/>
    <rect id="Rectangle_1858" data-name="Rectangle 1858" width="46.193" height="13.965" rx="6.983" transform="translate(104.133 318.517)" fill="#4c6cf6" opacity="0.1"/>
    <rect id="Rectangle_1859" data-name="Rectangle 1859" width="46.193" height="13.965" rx="6.983" transform="translate(152.475 332.482)" fill="#4c6cf6" opacity="0.1"/>
    <rect id="Rectangle_1860" data-name="Rectangle 1860" width="46.193" height="13.965" rx="6.983" transform="translate(200.816 346.448)" fill="#4c6cf6" opacity="0.1"/>
    <rect id="Rectangle_1861" data-name="Rectangle 1861" width="46.193" height="13.965" rx="6.983" transform="translate(104.133 297.569)" fill="#4c6cf6" opacity="0.1"/>
    <rect id="Rectangle_1862" data-name="Rectangle 1862" width="46.193" height="13.965" rx="6.983" transform="translate(152.475 311.534)" fill="#4c6cf6" opacity="0.1"/>
    <rect id="Rectangle_1863" data-name="Rectangle 1863" width="46.193" height="13.965" rx="6.983" transform="translate(200.816 325.5)" fill="#4c6cf6" opacity="0.1"/>
    <rect id="Rectangle_1864" data-name="Rectangle 1864" width="46.193" height="13.965" rx="6.983" transform="translate(254.529 318.517)" fill="#4c6cf6" opacity="0.1"/>
    <rect id="Rectangle_1865" data-name="Rectangle 1865" width="46.193" height="13.965" rx="6.983" transform="translate(302.871 332.482)" fill="#4c6cf6" opacity="0.1"/>
    <rect id="Rectangle_1866" data-name="Rectangle 1866" width="46.193" height="13.965" rx="6.983" transform="translate(351.212 346.448)" fill="#4c6cf6" opacity="0.1"/>
    <rect id="Rectangle_1867" data-name="Rectangle 1867" width="46.193" height="13.965" rx="6.983" transform="translate(254.529 297.569)" fill="#4c6cf6" opacity="0.1"/>
    <rect id="Rectangle_1868" data-name="Rectangle 1868" width="46.193" height="13.965" rx="6.983" transform="translate(302.871 311.534)" fill="#4c6cf6" opacity="0.1"/>
    <rect id="Rectangle_1869" data-name="Rectangle 1869" width="46.193" height="13.965" rx="6.983" transform="translate(351.212 325.5)" fill="#4c6cf6" opacity="0.1"/>
    <rect id="Rectangle_1870" data-name="Rectangle 1870" width="46.193" height="13.965" rx="6.983" transform="translate(104.133 269.638)" fill="#4c6cf6" opacity="0.1"/>
    <rect id="Rectangle_1871" data-name="Rectangle 1871" width="46.193" height="13.965" rx="6.983" transform="translate(152.475 283.604)" fill="#4c6cf6" opacity="0.1"/>
    <rect id="Rectangle_1872" data-name="Rectangle 1872" width="46.193" height="13.965" rx="6.983" transform="translate(200.816 297.569)" fill="#4c6cf6" opacity="0.1"/>
    <rect id="Rectangle_1873" data-name="Rectangle 1873" width="46.193" height="13.965" rx="6.983" transform="translate(104.133 248.69)" fill="#6c63ff" opacity="0.1"/>
    <rect id="Rectangle_1874" data-name="Rectangle 1874" width="46.193" height="13.965" rx="6.983" transform="translate(152.475 262.656)" fill="#4c6cf6" opacity="0.1"/>
    <rect id="Rectangle_1875" data-name="Rectangle 1875" width="46.193" height="13.965" rx="6.983" transform="translate(200.816 276.621)" fill="#4c6cf6" opacity="0.1"/>
    <rect id="Rectangle_1876" data-name="Rectangle 1876" width="46.193" height="13.965" rx="6.983" transform="translate(254.529 269.638)" fill="#4c6cf6" opacity="0.1"/>
    <rect id="Rectangle_1877" data-name="Rectangle 1877" width="46.193" height="13.965" rx="6.983" transform="translate(302.871 283.604)" fill="#4c6cf6" opacity="0.1"/>
    <rect id="Rectangle_1878" data-name="Rectangle 1878" width="46.193" height="13.965" rx="6.983" transform="translate(351.212 297.569)" fill="#4c6cf6" opacity="0.1"/>
    <rect id="Rectangle_1879" data-name="Rectangle 1879" width="46.193" height="13.965" rx="6.983" transform="translate(254.529 248.69)" fill="#6c63ff" opacity="0.1"/>
    <rect id="Rectangle_1880" data-name="Rectangle 1880" width="46.193" height="13.965" rx="6.983" transform="translate(302.871 262.656)" fill="#4c6cf6" opacity="0.1"/>
    <rect id="Rectangle_1881" data-name="Rectangle 1881" width="46.193" height="13.965" rx="6.983" transform="translate(351.212 276.621)" fill="#4c6cf6" opacity="0.1"/>
    <ellipse id="Ellipse_493" data-name="Ellipse 493" cx="235.531" cy="19.337" rx="235.531" ry="19.337" transform="translate(23.564 368.47)" fill="#4c6cf6" opacity="0.1"/>
    <path id="Tracé_1150" data-name="Tracé 1150" d="M171.288,252.387c22.21,9.625,34.972,29.542,34.972,29.542s-23.252,4.3-45.468-5.323-34.972-29.542-34.972-29.542S149.072,242.762,171.288,252.387Z" transform="translate(-125.82 -152.051)" fill="#4c6cf6"/>
    <path id="Tracé_1151" data-name="Tracé 1151" d="M331.917,174.651c6.87-11.28,18.569-16.651,18.569-16.651s.537,12.859-6.311,24.106S325.6,198.72,325.6,198.72,325.042,185.866,331.917,174.651Z" transform="translate(-218.288 -111.27)" fill="#4c6cf6"/>
    <path id="Tracé_1152" data-name="Tracé 1152" d="M241.6,181.781c4.915,17.543,18.461,29.091,18.461,29.091s5.581-16.9.666-34.451-18.466-29.091-18.466-29.091S236.683,164.233,241.6,181.781Z" transform="translate(-178.474 -106.331)" fill="#46455b"/>
    <rect id="Rectangle_1882" data-name="Rectangle 1882" width="391.567" height="196.052" rx="7.21" transform="translate(63.848 74.661)" fill="#3f3d56"/>
    <path id="Tracé_1153" data-name="Tracé 1153" d="M118.87,482H510.437v7.944a3.873,3.873,0,0,1-3.873,3.873H122.743a3.873,3.873,0,0,1-3.873-3.873Z" transform="translate(-55.022 -223.104)" opacity="0.1"/>
    <rect id="Rectangle_1883" data-name="Rectangle 1883" width="29.005" height="14.502" rx="2.5" transform="translate(143.343 244.393)" fill="#4c6cf6"/>
    <rect id="Rectangle_1884" data-name="Rectangle 1884" width="19.874" height="2.149" rx="1.074" transform="translate(180.405 256.747)" fill="#4c6cf6"/>
    <path id="Tracé_1154" data-name="Tracé 1154" d="M324.4,273.434c14.175,2.616,28.634,0,42.75-1.773l42.9-5.371c1.735-.22,4.259-1.257,5.28.865.575,1.187.188,3.76.231,5.124.113,3.76.1,7.52,0,11.28-.193,7.187-.72,14.357-1.391,21.512-1.305,14-3.153,27.931-4.077,41.987-.473,7.155-.709,14.331-.5,21.485.048,1.708.118,3.416.22,5.119.113,1.907.967,4.737-1.112,6.01-1.187.73-3.524.693-4.883.908-2.148.338-4.3.607-6.488.827-14.443,1.445-29.075.843-43.572.757l-43.776-.226-10.678-.059c-.967,0-4.453.58-5.049-.569-.252-.489.419-2.777.537-3.389q.247-1.515.537-3.024c1.246-7.063,2.718-14.083,4.2-21.1,3.185-15.04,6.446-30.154,7.756-45.516.65-7.708.22-15.485,1.015-23.177.371-3.572.811-11.543,5.565-11.86,4.028-.269,8.175,0,12.214,0a.806.806,0,0,0,0-1.611c-3.814,0-7.633-.1-11.446-.027-2.535.048-4.3.65-5.506,2.981-3.089,5.984-2.772,13.965-2.868,20.5-.231,15.636-2.632,30.939-5.758,46.231-1.574,7.7-3.271,15.367-4.834,23.07-.736,3.679-1.44,7.369-2.084,11.07-.3,1.762-1.821,5.645-.483,7.262s5.452.747,7.294.757l12.816.075,24.558.14c15.867.091,31.787.537,47.649.07,7.574-.226,15.577-.537,22.952-2.347,2.2-.537,3.255-1.547,3.341-3.889.129-3.631-.462-7.375-.537-11.022-.537-31.207,6.795-61.979,6.043-93.2-.048-2.122.752-7.471-1.568-8.755-1.042-.58-2.4-.263-3.491-.134-2.095.242-4.184.537-6.279.784l-27.206,3.395c-8.7,1.074-17.387,2.234-26.1,3.223-9.222,1.074-18.536,1.713-27.727,0-1.015-.188-1.45,1.364-.43,1.552Z" transform="translate(-161.641 -160.433)" fill="#4c6cf6"/>
    <path id="Tracé_1155" data-name="Tracé 1155" d="M319.332,310.8l107.329-5.264c1.037-.054,1.042-1.665,0-1.611l-107.329,5.264C318.3,309.241,318.3,310.852,319.332,310.8Z" transform="translate(-173.673 -178.816)" fill="#4c6cf6"/>
    <path id="Tracé_1156" data-name="Tracé 1156" d="M380.929,287.526a2.686,2.686,0,0,0,.951,4.335c1.445.661,3.142.107,4.576-.252,2.148-.537,4.3-1.015,6.5-1.407a88.708,88.708,0,0,1,14.551-1.354c2.224-.027,4.431.075,6.655.172,1.611.064,3.346.193,4.711-.806a3.041,3.041,0,0,0,.537-4.748c-2.149-1.961-6.779-.822-9.26-.618a207.655,207.655,0,0,0-26.781,4c-1.01.215-.585,1.773.43,1.552q8.739-1.885,17.612-3.029,4.361-.537,8.739-.908c1.375-.113,2.75-.215,4.125-.3.537-.032,1.106-.091,1.654-.075,1.7.038,1.9-.269.881,1.789-.908,1.821-.618,1.611-2.191,1.552-.666,0-1.332-.075-2-.107q-2.046-.086-4.093-.091-4.356,0-8.691.419c-2.449.236-4.893.569-7.316,1-1.515.269-3.019.58-4.517.924-.661.156-1.327.317-1.987.483-.317.086-.639.161-.956.242q-1.762.612-3-1.611c.72-.747-.414-1.891-1.139-1.139Z" transform="translate(-202.205 -168.82)" fill="#4c6cf6"/>
    <path id="Tracé_1157" data-name="Tracé 1157" d="M395.713,333.611c-7.772-.3-16.168,1.8-21.286,8.057-4.007,4.893-6.29,13.289-2.046,18.8,4.56,5.908,14.562,4.866,20.594,2.347,6.381-2.686,13.364-8.223,15.281-15.152,2.39-8.653-5.371-15.2-13.455-15.292a.806.806,0,0,0,0,1.611c4.609.054,9.131,2.03,11.28,6.322,2.251,4.523.312,9.271-2.686,12.891-4.8,5.763-12.311,10.109-19.96,9.985-4.592-.07-9.668-1.644-11.092-6.489a15,15,0,0,1,1.762-11.7c4.415-7.52,13.4-10.066,21.641-9.743,1.037.038,1.037-1.574,0-1.611Z" transform="translate(-197.534 -191.981)" fill="#4c6cf6"/>
    <path id="Tracé_1158" data-name="Tracé 1158" d="M400.978,352.263a2.095,2.095,0,0,0-2.815,2.148c.161,2.095,2.471,2.686,4.206,2.562,1.5-.129,3.25-.682,2.723-2.557a2.406,2.406,0,0,0-1.311-1.515,3.034,3.034,0,0,0-1.515-.188c-.2,0-2.02.666-1.246-.134l-1.268-.167a1.321,1.321,0,0,1,.387,1.074.811.811,0,0,0,1.209.693,1.074,1.074,0,0,1,1.456,1.257.811.811,0,0,0,1.472.623c.537-.967,1.187-2.89.381-3.9a1.719,1.719,0,0,0-2.218-.081,7.774,7.774,0,0,0-1.106.951c-.65.575-1.074.843-.833-.258.4-2,2.315-3.6,4.061-4.4l-1.182-.908a16.983,16.983,0,0,1-3.25,6.365l1.375.569a3.588,3.588,0,0,1,2.191-3.5h-.79l.419.688c-.156,1.015,1.4,1.45,1.552.424.2-1.327-.634-3.051-2.186-2.4a5.059,5.059,0,0,0-2.777,4.786c0,.645.913,1.144,1.38.575a18.94,18.94,0,0,0,3.658-7.085.816.816,0,0,0-1.187-.908,9.008,9.008,0,0,0-3.91,3.405c-.655,1.074-1.477,2.75-.811,3.986a1.708,1.708,0,0,0,2.337.661,6.285,6.285,0,0,0,1.348-1.074c.2-.177.419-.483.682-.537.236-.161.226-.07-.038.285a2.928,2.928,0,0,1-.467,1.568l1.472.618a2.686,2.686,0,0,0-3.819-3.078l1.214.7a2.927,2.927,0,0,0-.607-1.9.816.816,0,0,0-1.262-.166,2.107,2.107,0,0,0,.054,3.121c.768.585,1.144,0,1.987-.134,2.863-.371,1.192.918.183.961a3.808,3.808,0,0,1-1.348-.1q-1.681-.569-.21-1.466c.961.392,1.375-1.166.43-1.552Z" transform="translate(-210.517 -198.698)" fill="#4c6cf6"/>
    <path id="Tracé_1159" data-name="Tracé 1159" d="M394.1,361.526c.661,2.148-2.068,2.858-3.362,3.6a7.488,7.488,0,0,0-2.326,2.036,15.552,15.552,0,0,0-2.3,6.3c-.2,1.015,1.348,1.445,1.558.43a18.265,18.265,0,0,1,1.359-4.635c.967-1.923,2.353-2.567,4.157-3.556s3.11-2.519,2.471-4.6C395.348,360.107,393.79,360.532,394.1,361.526Z" transform="translate(-204.931 -205.017)" fill="#4c6cf6"/>
    <path id="Tracé_1160" data-name="Tracé 1160" d="M398.6,360.37a1.558,1.558,0,0,0-1.343,1.611c0,.639.424,1.047.714,1.558a12.3,12.3,0,0,1,1.558,3.389c.258,1.155.51,3.223-.091,4.3-1.112,1.993-3.121,1.611-4.834,1.611-1.611,0-2.857.537-2.8-1.708a7.144,7.144,0,0,1,1.611-3.534l-1.472-.193a28.074,28.074,0,0,1,.489,4.974c0,.747,1.144,1.16,1.5.4a31.115,31.115,0,0,0,2.046-5.661l-1.585-.215.279,4.082a.811.811,0,0,0,1.5.408,1.827,1.827,0,0,0,.4-.725c.054-.252-.44-1.955-.639-1.348l1.579.215.113-3.878-1.611.215a8.025,8.025,0,0,1,.3,3.384c-.1.9,1.407,1.1,1.611.215l1.01-5.21-1.472.188a3.561,3.561,0,0,1,.274,2.32c-.118,1.031,1.493,1.021,1.611,0a5.661,5.661,0,0,0-.494-3.131.811.811,0,0,0-1.472.193l-1.015,5.21,1.585.215a8.787,8.787,0,0,0-.36-3.808.806.806,0,0,0-1.579.209l-.113,3.878a.809.809,0,0,0,1.585.215l.086-.263a.816.816,0,0,0-.2-.784c-1.67-1.815-2.009,1.074-2.589,1.875l1.5.408L396,366.9a.811.811,0,0,0-1.585-.215,28.879,28.879,0,0,1-1.88,5.28l1.5.408a30.367,30.367,0,0,0-.537-5.4c-.14-.741-1.112-.709-1.472-.193-1.074,1.547-2.933,4.925-1.5,6.779,1.251,1.611,5.189.988,6.87.886,2.653-.15,3.615-1.832,3.9-4.335a10.613,10.613,0,0,0-.2-3.588c-.145-.634-1.611-4.652-2.052-4.571,1.021-.188.585-1.746-.43-1.558Z" transform="translate(-206.746 -204.941)" fill="#4c6cf6"/>
    <path id="Tracé_1161" data-name="Tracé 1161" d="M396.111,365.2l-4.4,5.806,1.391.811,3.223-4.662-1.472-.623-1.606,6.129a.811.811,0,0,0,1.472.623,28.308,28.308,0,0,1,2.455-3.454l-1.343-.784a8.771,8.771,0,0,1-2.025,3.722l1.348.784a7.2,7.2,0,0,1,.585-2.148c.414-.929-.9-1.751-1.391-.816a18.91,18.91,0,0,1-1.552,2.439l1.472.193.328-1.531-1.472-.193.236,1.343a.811.811,0,0,0,1.348.354,16.039,16.039,0,0,0,3.223-4.861h-1.386a7.235,7.235,0,0,1,.757,2.148c.193.967,1.477.607,1.579-.215a43.671,43.671,0,0,0,.355-5.425h-1.611v3.379c0,.876,1.434,1.133,1.585.215a6.156,6.156,0,0,1,.79-2.31h-1.413a3.582,3.582,0,0,1,.537,1.826.806.806,0,1,0,1.611,0l.2-1.074h-1.552c.156.951.747,6.306-1.354,5.677-.355-.086-.457-.064-.306.059l.478-1.021,1.123-2.379-1.5-.408c.1,1.106.2,2.686-.467,3.631a2.782,2.782,0,0,1-3.035.623,5.371,5.371,0,0,1-1.4-1.472l-1.1,1.074c.892.65,2.337,2.245,3.486,2.337.876.07,1.611-.655,2.186-1.235a9.362,9.362,0,0,0,2.627-6.891.806.806,0,0,0-1.611,0v1.837a.806.806,0,1,0,1.611,0V364.2a.806.806,0,1,0-1.611,0,19.341,19.341,0,0,1-.279,3.223l1.585.215a37.1,37.1,0,0,1-.177-3.862.806.806,0,0,0-1.579-.215c-.242,1.026-.537,2.036-.822,3.04l1.472-.193-.113-.43c-.075-1.026-1.687-1.031-1.611,0a2.949,2.949,0,0,0,.333,1.246.814.814,0,0,0,1.472-.193c.306-1.01.58-2.02.822-3.04l-1.585-.215a37.106,37.106,0,0,0,.177,3.862c.081.827,1.413,1.182,1.579.215a22.2,22.2,0,0,0,.338-3.674h-1.611v4.507h1.611v-1.837h-1.611a7.746,7.746,0,0,1-1.961,5.522,6.6,6.6,0,0,1-.677.666c-.381.365-.73.312-1.037-.166a13.424,13.424,0,0,1-2.218-1.611c-.666-.478-1.579.467-1.106,1.1,1.235,1.644,3.078,3.475,5.371,2.686,2.412-.854,2.739-4.12,2.557-6.268-.059-.714-1.128-1.2-1.5-.4-.537,1.133-1.074,2.261-1.611,3.4a3,3,0,0,0-.483,1.418c.177,1.208,1.644,1.01,2.546.94,3.5-.263,2.943-5.221,2.541-7.713-.134-.827-1.337-.7-1.552,0a4.744,4.744,0,0,0-.263,1.525h1.611a6.386,6.386,0,0,0-.757-2.637.811.811,0,0,0-1.391,0,7.831,7.831,0,0,0-.956,2.686l1.611.215v-3.379a.806.806,0,1,0-1.611,0,43.676,43.676,0,0,1-.355,5.425l1.585-.215a9.221,9.221,0,0,0-.918-2.514.811.811,0,0,0-1.391,0,14.7,14.7,0,0,1-2.97,4.533l1.348.354-.236-1.343c-.124-.714-1.133-.736-1.472-.193a3.534,3.534,0,0,0-.489,2.772c.134.763,1.1.682,1.472.193a18.85,18.85,0,0,0,1.552-2.433l-1.391-.816a9.162,9.162,0,0,0-.752,2.53c-.1.709.747,1.45,1.348.784a10.742,10.742,0,0,0,2.439-4.437c.2-.73-.811-1.423-1.348-.784a30.776,30.776,0,0,0-2.686,3.76l1.472.623,1.638-6.107a.811.811,0,0,0-1.472-.623L391.771,371c-.6.865.779,1.611,1.391.811l4.383-5.8c.623-.827-.773-1.611-1.391-.816Z" transform="translate(-207.38 -206.149)" fill="#4c6cf6"/>
    <path id="Tracé_1162" data-name="Tracé 1162" d="M526.722,354.349c6.446-3.943,11.57-9.824,17.263-14.744,6.177-5.334,12.66-10.3,19.337-15.007,12.966-9.131,26.582-17.3,40.188-25.449a.806.806,0,0,0-.811-1.391c-13.605,8.148-27.227,16.3-40.193,25.449-6.118,4.3-12.091,8.852-17.817,13.686-6.231,5.264-11.779,11.817-18.8,16.066-.886.537-.075,1.934.811,1.391Z" transform="translate(-269.465 -175.915)" fill="#4c6cf6"/>
    <path id="Tracé_1163" data-name="Tracé 1163" d="M690.871,253.846c-6.983.709-14.5,2.487-18.8,8.594-3.712,5.253-3.631,14.417-.145,19.809,3.959,6.129,12.048,6.349,18.332,4.367s12.789-5.457,12.73-12.966c-.032-4.028-1.488-8.223-3.094-11.876-1.386-3.153-3.841-5.908-7.557-5.559-1.026.1-1.037,1.708,0,1.611,4.979-.462,6.58,5.452,7.762,9.185,1.074,3.486,2.068,7.611.381,11.076s-5.753,5.232-9.228,6.5c-3.76,1.364-7.89,2.2-11.817,1.074-7.778-2.175-9.926-12.032-7.686-19.025,2.578-8.057,11.709-10.426,19.149-11.178,1.021-.1,1.031-1.713,0-1.611Z" transform="translate(-336.023 -155.632)" fill="#4c6cf6"/>
    <path id="Tracé_1164" data-name="Tracé 1164" d="M710.871,369.846c-6.983.709-14.5,2.487-18.8,8.594-3.712,5.253-3.631,14.417-.145,19.809,3.959,6.129,12.048,6.349,18.332,4.367s12.789-5.457,12.73-12.966c-.032-4.028-1.488-8.223-3.094-11.876-1.386-3.153-3.84-5.908-7.557-5.559-1.026.1-1.037,1.708,0,1.611,4.979-.462,6.58,5.452,7.761,9.185,1.074,3.486,2.068,7.611.381,11.076s-5.753,5.232-9.228,6.5c-3.76,1.364-7.89,2.2-11.817,1.074-7.778-2.175-9.926-12.032-7.686-19.025,2.578-8.057,11.709-10.426,19.149-11.178,1.021-.1,1.031-1.713,0-1.611Z" transform="translate(-345.28 -209.325)" fill="#4c6cf6"/>
    <path id="Tracé_1165" data-name="Tracé 1165" d="M689.682,259.385l5.087,5.8a.811.811,0,0,0,1.343-.36c1.074-2.825.87-5.753,1.123-8.723a28.721,28.721,0,0,1,2.283-8.9,30.041,30.041,0,0,1,12.021-13.777c.886-.537.075-1.934-.811-1.391a31.54,31.54,0,0,0-12.155,13.353,30.87,30.87,0,0,0-2.686,8.524c-.537,3.486-.048,7.138-1.337,10.485l1.348-.36-5.06-5.79c-.688-.779-1.821.365-1.139,1.139Z" transform="translate(-345.367 -145.481)" fill="#4c6cf6"/>
    <path id="Tracé_1166" data-name="Tracé 1166" d="M531.928,412.8q41.558-1.268,83.137-.537a.806.806,0,0,0,0-1.611q-41.568-.741-83.137.537C530.892,411.225,530.886,412.836,531.928,412.8Z" transform="translate(-272.076 -228.091)" fill="#4c6cf6"/>
    <path id="Tracé_1167" data-name="Tracé 1167" d="M697.717,383.921A166.463,166.463,0,0,1,724.934,397.6c.881.537,1.692-.843.811-1.391a168.245,168.245,0,0,0-27.576-13.836c-.961-.381-1.38,1.176-.424,1.552Z" transform="translate(-348.938 -215.096)" fill="#4c6cf6"/>
    <path id="Tracé_1168" data-name="Tracé 1168" d="M716.566,371.491a65.8,65.8,0,0,0-15.8,40.032c-.043,1.037,1.568,1.037,1.611,0A63.993,63.993,0,0,1,717.7,372.629c.671-.784-.462-1.928-1.139-1.139Z" transform="translate(-350.588 -209.965)" fill="#4c6cf6"/>
    <path id="Tracé_1169" data-name="Tracé 1169" d="M329.542,401.772l60.035-.784,6.9-.091c1.241,0,2.482-.043,3.722-.048a2.96,2.96,0,0,1,2.89,3.223c-.081,3.76-2.444,3.626-5.538,3.76l-7.461.338-30.38,1.337c-5.441.242-10.888.537-16.329.725-4.909.15-14.245-1.45-12.064-8.594.3-.994-1.252-1.418-1.558-.43-1.074,3.513.827,7.079,3.889,8.922,4.345,2.61,10.071,1.724,14.868,1.509l37.3-1.692,9.056-.4c2.32-.107,5.549.365,7.681-.714,2.5-1.262,2.943-6.274,1.364-8.385-.811-1.074-1.95-1.171-3.223-1.219-3.341-.129-6.741.091-10.087.134l-18.6.247-42.492.537a.806.806,0,0,0,0,1.611Z" transform="translate(-178.388 -222.908)" fill="#4c6cf6"/>
    <path id="Tracé_1191" data-name="Tracé 1191" d="M912.81,682c0,26.985,16.93,48.825,37.851,48.825" transform="translate(-490.095 -353.815)" fill="#46455b"/>
    <path id="Tracé_1192" data-name="Tracé 1192" d="M983.28,730.363c0-27.292,18.9-49.373,42.245-49.373" transform="translate(-522.714 -353.347)" fill="#4c6cf6"/>
    <path id="Tracé_1193" data-name="Tracé 1193" d="M938.35,686.56c0,25.637,10.8,46.381,24.133,46.381" transform="translate(-501.917 -355.925)" fill="#4c6cf6"/>
    <path id="Tracé_1194" data-name="Tracé 1194" d="M983.28,718.541c0-34.87,21.84-63.091,48.825-63.091" transform="translate(-522.714 -341.525)" fill="#46455b"/>
    <ellipse id="Ellipse_495" data-name="Ellipse 495" cx="9.41" cy="1.59" rx="9.41" ry="1.59" transform="translate(449.517 383.161)" fill="#6c63ff" opacity="0.1"/>
    <path id="Tracé_1195" data-name="Tracé 1195" d="M968.46,771.051s5.371-.167,6.983-1.316,8.256-2.53,8.658-.682,8.057,9.19,2,9.239-14.083-.945-15.695-1.928S968.46,771.051,968.46,771.051Z" transform="translate(-515.854 -393.691)" fill="#a8a8a8"/>
    <path id="Tracé_1196" data-name="Tracé 1196" d="M986.218,780.141c-6.059.048-14.078-.945-15.695-1.928-1.23-.747-1.719-3.438-1.885-4.673h-.177s.338,4.329,1.955,5.312,9.636,1.977,15.695,1.928c1.751,0,2.353-.639,2.32-1.558C988.189,779.781,987.55,780.131,986.218,780.141Z" transform="translate(-515.854 -396.186)" opacity="0.2"/>
    <path id="Tracé_1197" data-name="Tracé 1197" d="M148.31,711.36c0,21.485,13.466,38.845,30.111,38.845" transform="translate(-136.23 -367.404)" fill="#46455b"/>
    <path id="Tracé_1198" data-name="Tracé 1198" d="M204.37,749.83c0-21.711,15.04-39.28,33.608-39.28" transform="translate(-162.179 -367.03)" fill="#4c6cf6"/>
    <path id="Tracé_1199" data-name="Tracé 1199" d="M168.62,715c0,20.411,8.594,36.9,19.2,36.9" transform="translate(-145.631 -369.089)" fill="#4c6cf6"/>
    <path id="Tracé_1200" data-name="Tracé 1200" d="M204.37,740.425c0-27.743,17.376-50.195,38.845-50.195" transform="translate(-162.179 -357.624)" fill="#46455b"/>
    <ellipse id="Ellipse_496" data-name="Ellipse 496" cx="7.488" cy="1.268" rx="7.488" ry="1.268" transform="translate(33.399 387.689)" fill="#6c63ff" opacity="0.1"/>
    <path id="Tracé_1201" data-name="Tracé 1201" d="M192.58,782.173s4.27-.134,5.554-1.074,6.574-2.014,6.891-.537,6.419,7.31,1.611,7.348-11.2-.752-12.488-1.531S192.58,782.173,192.58,782.173Z" transform="translate(-156.721 -399.099)" fill="#a8a8a8"/>
    <path id="Tracé_1202" data-name="Tracé 1202" d="M206.706,789.473c-4.834.038-11.2-.752-12.488-1.536-.978-.591-1.364-2.734-1.5-3.717h-.14s.269,3.443,1.552,4.227,7.67,1.568,12.488,1.531c1.391,0,1.875-.5,1.848-1.241C208.275,789.167,207.743,789.441,206.706,789.473Z" transform="translate(-156.721 -401.129)" opacity="0.2"/>
  </g>
</svg>
