<svg xmlns="http://www.w3.org/2000/svg" width="553.672" height="401.736" viewBox="0 0 553.672 401.736">
  <g id="Groupe_187" data-name="Groupe 187" transform="translate(0 0)">
    <path id="Tracé_1002" data-name="Tracé 1002" d="M258.552,272.128a53.772,53.772,0,0,1-79.058-1.726L59.514,383.969,228.229,562.21,389.045,409.989Z" transform="translate(-59.514 -161.524)" fill="#f2f2f2"/>
    <path id="Tracé_1003" data-name="Tracé 1003" d="M338.677,236.62a46.935,46.935,0,0,0,33.9-14.42l-33.456-35.345L303.381,220.69A46.958,46.958,0,0,0,338.677,236.62Z" transform="translate(-178.473 -120.769)" fill="#f2f2f2"/>
    <path id="Tracé_1004" data-name="Tracé 1004" d="M725.5,304.447a84.427,84.427,0,0,1-84.513,84.513q-.722,0-1.444-.015c-2.028-.031-4.031-.133-6.023-.307a84.516,84.516,0,1,1,91.981-84.19Z" transform="translate(-301.928 -136.905)" fill="#4c6cf6"/>
    <path id="Tracé_1005" data-name="Tracé 1005" d="M691.19,273.863a84.04,84.04,0,0,0,10.187-30.26,84.512,84.512,0,0,0-142.4,49.473,84.193,84.193,0,0,0,51.183,23.34c1.992.174,4,.277,6.023.307q.722.015,1.444.015a84.388,84.388,0,0,0,73.562-42.876Z" transform="translate(-303.153 -136.904)" opacity="0.1"/>
    <rect id="Rectangle_1831" data-name="Rectangle 1831" width="135.732" height="151.611" transform="translate(240.719 250.006)" fill="#2f2e41"/>
    <path id="Tracé_1006" data-name="Tracé 1006" d="M721.655,405.667a84.612,84.612,0,0,1-59.215,49.376h18.818V606.654H556.066l70.258-121.693,16.1-27.884,1.173-2.033,53.284-92.288Z" transform="translate(-301.733 -206.574)" opacity="0.1"/>
    <path id="Tracé_1007" data-name="Tracé 1007" d="M671.083,306.924l70.555,122.205,70.555,122.205H529.972l70.555-122.205Z" transform="translate(-258.521 -149.718)" fill="#3f3d56"/>
    <rect id="Rectangle_1832" data-name="Rectangle 1832" width="534.735" height="1.024" transform="translate(18.937 400.592)" fill="#2f2e41"/>
    <path id="Tracé_1008" data-name="Tracé 1008" d="M154.886,732.086l-.935,7.791-5.3,2.493-5.921-1.87-4.051,1.87-1.246-7.167,7.167-8.1Z" transform="translate(-67.041 -354.681)" fill="#ffccb0"/>
    <path id="Tracé_1009" data-name="Tracé 1009" d="M202.283,801.4s4.831-5.632,4.909-2.816,10.672,12.476,10.672,12.476,16.516,4.986,3.739,8.1-40.822-5.921-41.757-7.791,7.79-16.2,8.725-14.958S194.181,802.027,202.283,801.4Z" transform="translate(-118.178 -418.078)" fill="#2f2e41"/>
    <path id="Tracé_1010" data-name="Tracé 1010" d="M224.662,625.531s1.87,14.646,0,16.828-.935,6.544,0,7.167-1.246,3.116-2.8,4.363-3.739,6.856-3.739,6.856-8.414,22.125-8.414,24.306-3.739,6.856-3.428,8.414-2.181,6.544-1.87,7.479-4.051,9.349-2.8,10.6,18.386,5.609,17.451,2.8-1.558-6.232-.935-6.232,3.428-3.428,2.8-4.674,18.7-33.967,18.7-33.967Z" transform="translate(-128.715 -334.756)" fill="#2f2e41"/>
    <path id="Tracé_1011" data-name="Tracé 1011" d="M202.283,801.4s4.831-5.632,4.909-2.816,10.672,12.476,10.672,12.476,16.516,4.986,3.739,8.1-40.822-5.921-41.757-7.791,7.79-16.2,8.725-14.958S194.181,802.027,202.283,801.4Z" transform="translate(-118.178 -418.078)" opacity="0.1"/>
    <path id="Tracé_1012" data-name="Tracé 1012" d="M224.662,625.531s1.87,14.646,0,16.828-.935,6.544,0,7.167-1.246,3.116-2.8,4.363-3.739,6.856-3.739,6.856-8.414,22.125-8.414,24.306-3.739,6.856-3.428,8.414-2.181,6.544-1.87,7.479-4.051,9.349-2.8,10.6,18.386,5.609,17.451,2.8-1.558-6.232-.935-6.232,3.428-3.428,2.8-4.674,18.7-33.967,18.7-33.967Z" transform="translate(-128.715 -334.756)" opacity="0.1"/>
    <path id="Tracé_1013" data-name="Tracé 1013" d="M236.322,729.282l3.428,8.725-1.558,12.153-9.972-.623-5.609-4.986V733.956Z" transform="translate(-108.59 -355.745)" fill="#ffccb0"/>
    <path id="Tracé_1014" data-name="Tracé 1014" d="M289.656,799.561s3.428-11.218,5.3-8.1a49.309,49.309,0,0,1,3.116,6.232s15.269,9.972,19.32,9.972,7.791,4.986,2.493,6.856-45.808,4.363-46.431,0,.623-18.386,2.493-16.828S287.475,802.677,289.656,799.561Z" transform="translate(-163.794 -415.43)" fill="#2f2e41"/>
    <path id="Tracé_1015" data-name="Tracé 1015" d="M313.33,538.279s13.735,9.334,14.358,10.58,8.593,5.079,2.049,8.2-23.886-16.594-23.886-16.594Z" transform="translate(-179.678 -292.194)" fill="#ffccb0"/>
    <path id="Tracé_1016" data-name="Tracé 1016" d="M302.617,502.991s9.972,19.32,8.1,19.944-9.349,4.363-9.349,4.363l-3.428-19.632Z" transform="translate(-175.82 -274.981)" fill="#575a88"/>
    <path id="Tracé_1017" data-name="Tracé 1017" d="M302.617,502.991s9.972,19.32,8.1,19.944-9.349,4.363-9.349,4.363l-3.428-19.632Z" transform="translate(-175.82 -274.981)" opacity="0.1"/>
    <path id="Tracé_1018" data-name="Tracé 1018" d="M264.285,534.484s2.181,16.2,1.246,19.632.623,54.845-.623,57.65-2.181,20.878-2.181,23.06,2.493,19.944,3.116,21.5,2.493,6.856,1.558,9.349-13.711,8.725-15.581,6.544-.312-9.037-1.87-9.349-3.428-14.958-3.428-14.958L236.24,590.576s-19.32-47.989-14.958-52.664S264.285,534.484,264.285,534.484Z" transform="translate(-138.112 -290.27)" fill="#2f2e41"/>
    <circle id="Ellipse_482" data-name="Ellipse 482" cx="15.269" cy="15.269" r="15.269" transform="translate(99.374 103.051)" fill="#ffccb0"/>
    <path id="Tracé_1019" data-name="Tracé 1019" d="M276.158,304.387s-4.986,13.088-4.363,15.893-14.646-4.986-14.646-4.986.935-15.269,0-19.32S276.158,304.387,276.158,304.387Z" transform="translate(-155.905 -173.602)" fill="#ffccb0"/>
    <path id="Tracé_1020" data-name="Tracé 1020" d="M211.9,402.886c.068,2.615.112,4.173.112,4.173s-.935,14.335.623,19.009,1.558,8.1,2.493,11.218c.274.907,4,1.393,9.243,1.608,4.805.2,10.879.168,16.709.034,9.654-.224,18.654-.742,20.168-1.019,3.428-.623-.623-5.921.623-8.725s-2.181-38.641-2.181-38.641S260,370.287,258.44,362.5s-7.479-20.255-8.725-21.813-.312-2.493,2.493-4.363,0-9.037,0-9.037c-5.3-4.363-18.7-4.986-18.7-4.986s-20.567,21.19-21.813,25.553c-.754,2.636-.483,23.7-.153,39.956C211.672,393.923,211.806,399.364,211.9,402.886Z" transform="translate(-133.513 -186.838)" fill="#575a88"/>
    <path id="Tracé_1021" data-name="Tracé 1021" d="M252.891,555.314s11.842,24.306,2.493,25.864-14.023-22.125-14.023-22.125Z" transform="translate(-148.22 -300.504)" fill="#ffccb0"/>
    <path id="Tracé_1022" data-name="Tracé 1022" d="M276.94,262.121c.54-2.619-1.462-5.067-3.569-6.712a26.085,26.085,0,0,0-16.048-5.473c-4.087.022-8.3,1.1-11.393,3.779-3.6,3.121-5.246,8.126-4.944,12.883a25.617,25.617,0,0,0,5.162,13.133c1.339,1.855,3.49,3.775,5.631,2.966a5.233,5.233,0,0,0,2.083-1.759,32.3,32.3,0,0,0,3.57-5.487,21.849,21.849,0,0,1,2.515-4.331,5.11,5.11,0,0,1,4.375-2c1.37.189,2.713,1.153,4.02.7,1.453-.5,1.8-2.363,1.92-3.9a26.436,26.436,0,0,1,.5-5.219C271.277,260.974,276.69,263.375,276.94,262.121Z" transform="translate(-148.019 -151.54)" fill="#2f2e41"/>
    <path id="Tracé_1023" data-name="Tracé 1023" d="M211.014,425.645c3.49,12.586,11.5,33.8,11.954,34.711.115.234.3.692.517,1.3,4.805.2,10.879.168,16.709.034-.9-2.362-1.957-4.643-1.957-5.382,0-1.558-7.479-41.757-7.479-41.757s5.921-17.762,11.218-32.72-15.737-12-15.737-12c-11.218-2.8-13.244,2.026-13.244,2.026s-.988,26.27-2.334,38.709c-.346,3.188-.714,5.466-1.094,6.164C209.069,417.643,209.742,421.077,211.014,425.645Z" transform="translate(-132.63 -209.598)" opacity="0.1"/>
    <path id="Tracé_1024" data-name="Tracé 1024" d="M228.681,350.532s14.335,5.921,9.037,20.879-11.218,32.72-11.218,32.72,7.479,40.2,7.479,41.757,4.674,9.972,2.8,11.53-14.335,4.674-14.646,3.116a105.389,105.389,0,0,0-3.428-10.6c-.623-1.247-15.269-40.2-13.4-43.627,1.376-2.522,2.583-25.633,3.125-37.664a19.782,19.782,0,0,1,10.313-16.654A13.732,13.732,0,0,1,228.681,350.532Z" transform="translate(-130.553 -200.427)" fill="#575a88"/>
    <rect id="Rectangle_1833" data-name="Rectangle 1833" width="18.439" height="18.439" transform="translate(137.255 241.299)" fill="#4c6cf6"/>
    <circle id="Ellipse_483" data-name="Ellipse 483" cx="5.634" cy="5.634" r="5.634" transform="translate(140.84 230.03)" fill="#3f3d56"/>
    <circle id="Ellipse_484" data-name="Ellipse 484" cx="27.82" cy="27.82" r="27.82" transform="translate(336.414 0.871)" fill="#ff6584"/>
    <path id="Tracé_1025" data-name="Tracé 1025" d="M717.4,105.524c0,20.99-12.478,28.319-27.871,28.319s-27.871-7.329-27.871-28.319,27.871-47.693,27.871-47.693S717.4,84.534,717.4,105.524Z" transform="translate(-353.24 -57.831)" fill="#f2f2f2"/>
    <path id="Tracé_1026" data-name="Tracé 1026" d="M643.907,72.8l.285-17.567L656.071,33.5,644.237,52.479l.128-7.9,8.188-15.723L644.4,42.49h0l.23-14.206L653.4,15.765l-8.731,10.284L644.81,0,643.9,34.485l.075-1.423-8.914-13.643,8.771,16.374-.831,15.866-.025-.422L632.705,36.88l10.244,15.846-.1,1.984-.018.03.009.163-2.107,40.254h2.815l.338-20.792L654.1,58.558Z" transform="translate(-308.635)" fill="#3f3d56"/>
    <path id="Tracé_1027" data-name="Tracé 1027" d="M849.2,160.7c-6.66,19.906-20.819,22.9-35.416,18.013s-24.106-15.793-17.446-35.7S837.9,106.631,837.9,106.631,855.856,140.8,849.2,160.7Z" transform="translate(-417.879 -81.636)" fill="#f2f2f2"/>
    <path id="Tracé_1028" data-name="Tracé 1028" d="M763.427,117.483l5.844-16.569,18.161-16.841L770.188,98.315l2.628-7.45,12.753-12.313L773.511,88.894h0l4.727-13.4,12.286-9.089-11.542,6.982,8.4-24.658-11.8,32.415.522-1.326L771.98,64.053,775.1,82.365,769.28,97.148l.111-.407L764.2,79.864l4.688,18.277-.728,1.849-.027.023-.044.157-14.77,37.505,2.67.893,6.917-19.611,14.707-11.748Z" transform="translate(-367.471 -23.771)" fill="#3f3d56"/>
    <path id="Tracé_1029" data-name="Tracé 1029" d="M580.078,148.092c7.549,19.586-1.459,30.912-15.822,36.448s-28.642,3.185-36.191-16.4,8.854-54.526,8.854-54.526S572.529,128.506,580.078,148.092Z" transform="translate(-287.105 -85.042)" fill="#f2f2f2"/>
    <path id="Tracé_1030" data-name="Tracé 1030" d="M510.856,124.116,504.8,107.621l3.269-24.551-4.218,21.964-2.721-7.417L503.118,80l-2.7,15.653h0L495.52,82.316,499.2,67.483l-4.448,12.736L485.517,55.86l11.556,32.5-.442-1.354-13.224-9.525L497.48,89.609l4.931,15.1-.174-.384-14.752-9.7,15.258,11.1.617,1.889-.007.034.067.149,12.51,38.318,2.627-1.012-7.163-19.522,3.851-18.424Z" transform="translate(-235.807 -27.249)" fill="#3f3d56"/>
    <path id="Tracé_1031" data-name="Tracé 1031" d="M508.139,497.69c-1.727,2.755-3.968,2.69-5.988,1.424s-3.055-3.255-1.328-6.01,7.582-3.966,7.582-3.966S509.866,494.935,508.139,497.69Z" transform="translate(-274.359 -268.223)" fill="#4c6cf6"/>
    <path id="Tracé_1032" data-name="Tracé 1032" d="M909.868,338.045c.32,3.236-1.492,4.555-3.865,4.79s-4.408-.705-4.727-3.941,3.57-7.776,3.57-7.776S909.548,334.809,909.868,338.045Z" transform="translate(-470.118 -191.141)" fill="#4c6cf6"/>
    <path id="Tracé_1033" data-name="Tracé 1033" d="M490.2,383.143c-1.727,2.755-3.968,2.69-5.988,1.424s-3.055-3.255-1.328-6.01,7.582-3.966,7.582-3.966S491.929,380.388,490.2,383.143Z" transform="translate(-265.609 -212.347)" fill="#4c6cf6"/>
    <path id="Tracé_1203" data-name="Tracé 1203" d="M213.654,362.033a11.817,11.817,0,0,0,3.321,1.19,3.031,3.031,0,0,0,3.063-1.312,4.12,4.12,0,0,0,.348-1.863c.042-1.934-.1-4.024-1.323-5.521-.78-.952-1.918-1.553-2.726-2.482a11.729,11.729,0,0,1-1.378-2.251c-1.57-2.949-3.895-5.783-7.125-6.633a15.452,15.452,0,0,0-4.159-.318l-8.136.115a14.164,14.164,0,0,0-3.914.421c-2.619.792-4.525,2.994-6.272,5.1a31.894,31.894,0,0,0-3.6,4.964,17.418,17.418,0,0,0-2.065,8.534,7.986,7.986,0,0,0,.292,2.258,12.531,12.531,0,0,0,.888,1.95c1.526,3,2.432,6.74.713,9.631,2.985-1.219,5.938-2.818,7.907-5.371a14.809,14.809,0,0,1,2.745-3.317c1.174-.838,3.087-.911,3.84.319a3.441,3.441,0,0,1,.388,1.612,7.387,7.387,0,0,0,.445,2.72,2.038,2.038,0,0,0,2.214,1.263c1.533-.432,1.386-2.785,2.567-3.854.9-.812,2.281-.657,3.433-1.025a5.094,5.094,0,0,0,2.924-2.88c.436-.978.43-3.539,1.255-4.069C210.34,360.548,212.694,361.6,213.654,362.033Z" transform="translate(-86.534 -247.437)" fill="#2f2e41"/>
  </g>
</svg>
