<svg xmlns="http://www.w3.org/2000/svg" xmlns:xlink="http://www.w3.org/1999/xlink" width="623.511" height="441.724" viewBox="0 0 623.511 441.724">
  <defs>
    <linearGradient id="linear-gradient" x1="0.5" y1="1" x2="0.5" gradientUnits="objectBoundingBox">
      <stop offset="0" stop-color="gray" stop-opacity="0.251"/>
      <stop offset="0.54" stop-color="gray" stop-opacity="0.122"/>
      <stop offset="1" stop-color="gray" stop-opacity="0.102"/>
    </linearGradient>
    <linearGradient id="linear-gradient-2" x1="0.5" y1="1.001" x2="0.5" y2="0" xlink:href="#linear-gradient"/>
  </defs>
  <g id="Groupe_193" data-name="Groupe 193" transform="translate(0.003 -0.091)">
    <ellipse id="Ellipse_485" data-name="Ellipse 485" cx="127.943" cy="24.867" rx="127.943" ry="24.867" transform="translate(365.195 329.42)" fill="#4c6cf6" opacity="0.1"/>
    <g id="Groupe_188" data-name="Groupe 188" transform="translate(365.347 58.933)" opacity="0.5">
      <path id="Tracé_1034" data-name="Tracé 1034" d="M706.743,186.159c-1.725.49-3.838,1.768-4.879,5.26-2.04,6.846,2.7,11.5,1.138,18.638a13.924,13.924,0,0,1-2.421,5.23c-1.907,2.585-3.977,3.808-5.987,5.617a17.857,17.857,0,0,0-5.26,8.638,23.911,23.911,0,0,0-.236,11.229,44.048,44.048,0,0,0,3,7.869,58.11,58.11,0,0,1,3.093,9.909,24.133,24.133,0,0,1,.678,5.036,44.305,44.305,0,0,1-.605,6.731l-2.9,20.23a60.8,60.8,0,0,0-.793,8,39.719,39.719,0,0,0,.926,7.984c1.017,5.351,2.113,10.9,4.443,13.729s6.3,1.816,8.741-3.917c2.318-5.484,2.373-12.8,4.419-18.662,3.226-9.231,9.637-10.472,13.2-19.28,3.414-8.475,2.367-18.814,4.1-28.451,1.211-6.907,3.88-13.2,5.448-20.024a63.422,63.422,0,0,0,.23-27.579,36.654,36.654,0,0,0-8.584-16.671c-1.507-1.665-3.124-3.148-5.018-3.3-2.016-.157-3.777,2.379-5.769,3.142C711.4,186.419,709.086,185.493,706.743,186.159Z" transform="translate(-688.542 -182.368)" fill="#4c6cf6"/>
      <path id="Tracé_1035" data-name="Tracé 1035" d="M725.052,183.23S721.638,270.6,707.28,322.123" transform="translate(-695.937 -182.708)" fill="none" stroke="#535461" stroke-miterlimit="10" stroke-width="2"/>
      <path id="Tracé_1036" data-name="Tracé 1036" d="M710.41,198s15.345,13.971,12.433,40.557" transform="translate(-697.172 -188.538)" fill="none" stroke="#535461" stroke-miterlimit="10" stroke-width="2"/>
      <path id="Tracé_1037" data-name="Tracé 1037" d="M689.14,263.68s25.188,5.067,23.317,20.133" transform="translate(-688.778 -214.46)" fill="none" stroke="#535461" stroke-miterlimit="10" stroke-width="2"/>
      <path id="Tracé_1038" data-name="Tracé 1038" d="M749.6,215.07s-10.194,8.923-19.274,34.2" transform="translate(-705.034 -195.275)" fill="none" stroke="#535461" stroke-miterlimit="10" stroke-width="2"/>
      <path id="Tracé_1039" data-name="Tracé 1039" d="M737.546,332.366s-6.955,5.448-12.536-13.626" transform="translate(-702.935 -236.19)" fill="none" stroke="#535461" stroke-miterlimit="10" stroke-width="2"/>
      <path id="Tracé_1040" data-name="Tracé 1040" d="M696.14,352.663s14.183-1.852,15.49-10.733" transform="translate(-691.541 -245.342)" fill="none" stroke="#535461" stroke-miterlimit="10" stroke-width="2"/>
    </g>
    <path id="Tracé_1041" data-name="Tracé 1041" d="M754.5,89.192c-3.511.521-7.736,2.149-9.473,7.167-3.408,9.843,6.949,17.294,4.564,27.579a15.454,15.454,0,0,1-4.322,7.415c-3.632,3.577-7.785,5.139-11.719,7.567a22.1,22.1,0,0,0-9.867,12.107,25.5,25.5,0,0,0,.841,16.507c1.846,4.649,4.637,8.117,7.131,11.943a80.926,80.926,0,0,1,7.561,14.952,28.41,28.41,0,0,1,2.01,7.464,45.257,45.257,0,0,1-.49,9.843l-3.6,29.5a61.765,61.765,0,0,0-.69,11.683,45.9,45.9,0,0,0,2.869,11.864c2.736,8,5.666,16.344,10.829,20.751S763.408,289,767.773,280.8c4.153-7.8,3.39-18.572,6.931-26.955,5.581-13.214,18.7-14.286,25.018-26.828,6.053-12.034,2.669-27.428,5.1-41.411,1.743-10.018,6.465-18.977,8.886-28.838a67.925,67.925,0,0,0-2.8-40.557c-4.613-11.308-11.907-19.371-19.734-25.563-3.317-2.633-6.834-5.012-10.775-5.448-4.189-.466-7.536,3.057-11.562,3.947C764.159,90.124,759.268,88.483,754.5,89.192Z" transform="translate(-336.67 -85.07)" fill="#4c6cf6"/>
    <path id="Tracé_1042" data-name="Tracé 1042" d="M798.685,86s3.305,128.264-20.315,202.435" transform="translate(-358.647 -85.401)" fill="none" stroke="#535461" stroke-miterlimit="10" stroke-width="2"/>
    <path id="Tracé_1043" data-name="Tracé 1043" d="M759.38,104.68s33.414,22.4,30.551,61.235" transform="translate(-351.152 -92.774)" fill="none" stroke="#535461" stroke-miterlimit="10" stroke-width="2"/>
    <path id="Tracé_1044" data-name="Tracé 1044" d="M723.15,198.85S775.886,209.3,773.8,231.259" transform="translate(-336.853 -129.94)" fill="none" stroke="#535461" stroke-miterlimit="10" stroke-width="2"/>
    <path id="Tracé_1045" data-name="Tracé 1045" d="M845.179,135.92s-20.042,11.931-35.829,48.069" transform="translate(-370.874 -105.103)" fill="none" stroke="#535461" stroke-miterlimit="10" stroke-width="2"/>
    <path id="Tracé_1046" data-name="Tracé 1046" d="M831.461,305.736S817.72,313,803.9,284.18" transform="translate(-368.723 -163.617)" fill="none" stroke="#535461" stroke-miterlimit="10" stroke-width="2"/>
    <path id="Tracé_1047" data-name="Tracé 1047" d="M749,331.891s29.135-1.047,30.793-13.971" transform="translate(-347.056 -176.933)" fill="none" stroke="#535461" stroke-miterlimit="10" stroke-width="2"/>
    <path id="Tracé_1048" data-name="Tracé 1048" d="M143.139,663.66s5.073,6.659-2.343,16.647-13.541,18.475-11.053,24.722c0,0,11.187-18.6,20.291-18.862S153.157,674.847,143.139,663.66Z" transform="translate(-102.431 -313.386)" fill="#4c6cf6"/>
    <path id="Tracé_1049" data-name="Tracé 1049" d="M143.348,663.66a8.215,8.215,0,0,1,1.065,2.082c8.886,10.436,13.614,20.176,5.079,20.424-7.954.23-17.494,14.449-19.782,18.045a7.713,7.713,0,0,0,.272.817s11.186-18.6,20.291-18.862S153.366,674.847,143.348,663.66Z" transform="translate(-102.641 -313.386)" opacity="0.1"/>
    <path id="Tracé_1050" data-name="Tracé 1050" d="M167.031,676.662c0,2.337-.26,4.237-.605,4.237s-.605-1.895-.605-4.237.327-1.211.648-1.211S167.031,674.326,167.031,676.662Z" transform="translate(-116.892 -317.932)" fill="#ffd037"/>
    <path id="Tracé_1051" data-name="Tracé 1051" d="M170.562,681.188c-2.052,1.12-3.838,1.816-3.989,1.507s1.38-1.422,3.432-2.536,1.241-.3,1.4,0S172.608,680.068,170.562,681.188Z" transform="translate(-117.185 -319.673)" fill="#ffd037"/>
    <path id="Tracé_1052" data-name="Tracé 1052" d="M100.575,663.66s-5.073,6.659,2.343,16.647,13.529,18.469,11.053,24.716c0,0-11.187-18.6-20.291-18.862S90.545,674.847,100.575,663.66Z" transform="translate(-86.648 -313.386)" fill="#4c6cf6"/>
    <path id="Tracé_1053" data-name="Tracé 1053" d="M100.575,663.66a8.216,8.216,0,0,0-1.035,2.082c-8.886,10.436-13.614,20.176-5.079,20.424,7.954.23,17.494,14.449,19.782,18.045a7.711,7.711,0,0,1-.272.817s-11.187-18.6-20.291-18.862S90.545,674.847,100.575,663.66Z" transform="translate(-86.648 -313.386)" opacity="0.1"/>
    <path id="Tracé_1054" data-name="Tracé 1054" d="M92.4,676.662c0,2.337.26,4.237.605,4.237s.605-1.895.605-4.237-.327-1.211-.648-1.211S92.4,674.326,92.4,676.662Z" transform="translate(-87.916 -317.932)" fill="#ffd037"/>
    <path id="Tracé_1055" data-name="Tracé 1055" d="M86.236,681.188c2.052,1.12,3.838,1.816,3.989,1.507s-1.38-1.422-3.432-2.536-1.241-.3-1.4,0S84.19,680.068,86.236,681.188Z" transform="translate(-84.99 -319.673)" fill="#ffd037"/>
    <path id="Tracé_1056" data-name="Tracé 1056" d="M95.07,725.565s14.183-.436,18.457-3.481,21.792-6.659,22.875-1.816,21.314,24.28,5.3,24.407-37.2-2.494-41.471-5.091S95.07,725.565,95.07,725.565Z" transform="translate(-88.969 -334.795)" fill="#a8a8a8"/>
    <path id="Tracé_1057" data-name="Tracé 1057" d="M141.989,747.976c-16.011.127-37.2-2.494-41.471-5.091-3.251-1.979-4.546-9.08-4.976-12.355H95.07s.9,11.441,5.163,14.038,25.46,5.224,41.471,5.091c4.625-.036,6.217-1.683,6.132-4.116C147.2,747.031,145.434,747.951,141.989,747.976Z" transform="translate(-88.969 -339.778)" opacity="0.2"/>
    <path id="Tracé_1058" data-name="Tracé 1058" d="M1052.667,651.8a7.065,7.065,0,0,0,2.318-3.5,3.106,3.106,0,0,0-1.622-3.565c-1.489-.569-3.081.46-4.286,1.507s-2.591,2.234-4.171,2.01a6.344,6.344,0,0,0,1.961-5.938,2.481,2.481,0,0,0-.545-1.211c-.829-.884-2.324-.5-3.317.194-3.148,2.215-4.026,6.489-4.044,10.339a19.823,19.823,0,0,1-.061-4.237c-.012-1.4-.4-3.027-1.6-3.765a4.843,4.843,0,0,0-2.421-.575c-1.416-.055-2.99.091-3.959,1.126-1.211,1.283-.89,3.444.157,4.843a15.753,15.753,0,0,0,4.1,3.281,9.082,9.082,0,0,1,2.93,2.791,2.778,2.778,0,0,1,.218.5h8.868A24.719,24.719,0,0,0,1052.667,651.8Z" transform="translate(-458.015 -304.281)" fill="#4c6cf6"/>
    <path id="Tracé_1059" data-name="Tracé 1059" d="M210.437,419.489c19.262,24.492,11.78,60.273-.46,88.923-4.1,9.594-8.735,19.746-7,30.03,2.113,12.579,13.317,21.792,25.133,26.635a74.814,74.814,0,0,0,66.956-5.515c17.064-10.617,29.286-27.882,46.641-38.015C370.759,504.6,407.72,511,439.258,522.674c22.313,8.263,46.707,19.013,68.881,10.375,15.6-6.053,26.386-20.866,32.264-36.544,2.839-7.573,4.9-15.739,10.291-21.792,3.22-3.565,7.421-6.1,11.731-8.232,39.346-19.5,88.984-9.08,127.168-30.678,25.793-14.6,42.307-42.149,49.637-70.872s6.459-58.844,4.6-88.421c-1.32-21.023-3.686-43.463-17.119-59.692-14.207-17.161-38.6-23.547-60.636-20.285s-42.028,14.946-59.583,28.638c-21.967,17.113-42.337,38.426-69.31,45.363-18.366,4.722-37.688,2.137-56.635,1.247-31.671-1.5-63.348,1.816-94.843,5.448-30.152,3.487-60.533,7.325-89.244,17.131-20.327,6.943-36.622,19.54-55.818,28.342-12.512,5.739-26.156,7.325-38,14.631-14.595,9-27.966,24.661-24.213,42.978C181.956,397.752,200.207,406.493,210.437,419.489Z" transform="translate(-121.618 -128.701)" fill="#4c6cf6" opacity="0.1"/>
    <path id="Tracé_1204" data-name="Tracé 1204" d="M258.882,0C401.858,0,517.763,11.133,517.763,24.867S401.858,49.734,258.882,49.734,0,38.6,0,24.867,115.905,0,258.882,0Z" transform="translate(75.471 241.042)" fill="#4c6cf6" opacity="0.1"/>
    <ellipse id="Ellipse_487" data-name="Ellipse 487" cx="127.943" cy="24.867" rx="127.943" ry="24.867" transform="translate(7.444 384.505)" fill="#4c6cf6" opacity="0.1"/>
    <path id="Tracé_1060" data-name="Tracé 1060" d="M523.388,511.48l-2.028,2.948s2.209,2.948,2.421,3.317,6.447-.182,6.447-.182l.551-2.209-.92-2.579Z" transform="translate(-257.213 -253.325)" fill="#e6e6f0"/>
    <path id="Tracé_1061" data-name="Tracé 1061" d="M324.446,423.67l-4.056.732,2.579,4.982,2.766,1.471,2.579,1.84.739-2.022-1.846-3.874Z" transform="translate(-126.449 -167.174)" fill="#fdc2cc"/>
    <path id="Tracé_1062" data-name="Tracé 1062" d="M513.821,429.5s21.562,5.157,25.611,10.9c0,0,3.687,3.136,0,8.844s-8.844,18.614-8.844,18.614-3.686,12.53-5.157,13.45-9.952,1.659-10.69-1.816c0,0,4.788-7.555,4.788-11.059s7.924-20.085,7.924-20.085-18.057-2.028-23.771-.738S506.267,427.474,513.821,429.5Z" transform="translate(-249.487 -220.918)" fill="#565171"/>
    <path id="Tracé_1063" data-name="Tracé 1063" d="M513.821,429.5s21.562,5.157,25.611,10.9c0,0,3.687,3.136,0,8.844s-8.844,18.614-8.844,18.614-3.686,12.53-5.157,13.45-9.952,1.659-10.69-1.816c0,0,4.788-7.555,4.788-11.059s7.924-20.085,7.924-20.085-18.057-2.028-23.771-.738S506.267,427.474,513.821,429.5Z" transform="translate(-249.487 -220.918)" opacity="0.1"/>
    <path id="Tracé_1064" data-name="Tracé 1064" d="M473.026,434.586c-.042,1.071-.157,2.276-.321,3.571-1.18,9.383-5.024,23.336-5.024,23.336s-3.868,8.293-4.976,13.638-8.662,6.659-8.662,6.659-20.642,2.421-24.879,1.477-10.9,2.766-14.189,2.209-5.345-8.293-5.345-8.293a39.951,39.951,0,0,0,16.586-3.5c8.475-3.868,20.642-2.028,20.642-2.028a6.931,6.931,0,0,0,4.237-3.5c1.289-2.766,1.289-19.534.92-20.642-2.421-7.264-2.222-11.925-1.525-14.643a7.306,7.306,0,0,1,1.525-3.232Z" transform="translate(-213.117 -221.026)" fill="#565171"/>
    <path id="Tracé_1065" data-name="Tracé 1065" d="M499.682,434.566c-.042,1.071-.157,2.276-.321,3.571-1.852.145-7.046.285-10.9-2.094-3.632-2.228-8.917-2.984-11.3-3.22a7.306,7.306,0,0,1,1.525-3.232Z" transform="translate(-239.773 -221.006)" opacity="0.1"/>
    <path id="Tracé_1066" data-name="Tracé 1066" d="M501.41,428.3c-.86,2.421-2.179,5.26-2.179,5.26s-6.816.92-11.61-2.028-12.53-3.317-12.53-3.317c1.253-.769,2.1-3.105,2.627-5.151a32.652,32.652,0,0,0,.69-3.511s22.664,4.607,23.608,5.345C502.366,425.186,501.991,426.651,501.41,428.3Z" transform="translate(-238.952 -217.043)" fill="#e6e6f0"/>
    <path id="Tracé_1067" data-name="Tracé 1067" d="M565.588,293.219,538.1,309.811l-2.73,1.647v-8.105l1.895-.908,23.166-11.072s1.108-20.085,4.056-16.949S565.588,293.219,565.588,293.219Z" transform="translate(-262.742 -159.635)" fill="#fdc2cc"/>
    <path id="Tracé_1068" data-name="Tracé 1068" d="M538.1,328.3l-2.73,1.646v-8.105l1.895-.908A59.644,59.644,0,0,0,538.1,328.3Z" transform="translate(-262.742 -178.121)" opacity="0.1"/>
    <path id="Tracé_1069" data-name="Tracé 1069" d="M504.93,330.553l19.716-11.423s.369,11.059,2.579,12.712c0,0-8.105,2.421-11.241,7.555Z" transform="translate(-250.729 -177.411)" fill="#b45181"/>
    <path id="Tracé_1070" data-name="Tracé 1070" d="M504.93,330.553l19.716-11.423s.369,11.059,2.579,12.712c0,0-8.105,2.421-11.241,7.555Z" transform="translate(-250.729 -177.411)" opacity="0.1"/>
    <path id="Tracé_1071" data-name="Tracé 1071" d="M570.958,341.564s-9.377,4.086-15.587,5.587a12.24,12.24,0,0,1-4.316.5c-4.237-.738,1.108-6.053,1.108-6.053l2.228-.345,11.961-1.864s1.289-18.426,3.5-16.949S570.958,341.564,570.958,341.564Z" transform="translate(-268.288 -178.682)" fill="#fdc2cc"/>
    <path id="Tracé_1072" data-name="Tracé 1072" d="M506.323,321.153s-7.924,5.9-4.976,13.269S486.05,330,486.05,330s5.9-8.844,7.185-15.478S506.323,321.153,506.323,321.153Z" transform="translate(-243.277 -174.858)" fill="#fdc2cc"/>
    <path id="Tracé_1073" data-name="Tracé 1073" d="M503.127,428.3a41.767,41.767,0,0,0-10.654-2.482,56.834,56.834,0,0,1-13.033-2.754,32.647,32.647,0,0,0,.69-3.511s22.664,4.607,23.608,5.345C504.083,425.186,503.708,426.651,503.127,428.3Z" transform="translate(-240.668 -217.043)" opacity="0.1"/>
    <path id="Tracé_1074" data-name="Tracé 1074" d="M555.361,359.472a12.239,12.239,0,0,1-4.316.5c-4.237-.738,1.108-6.053,1.108-6.053l2.228-.345C555.313,355,556.263,357.244,555.361,359.472Z" transform="translate(-268.284 -191.003)" opacity="0.1"/>
    <path id="Tracé_1075" data-name="Tracé 1075" d="M489.145,332.167s-7.185-.182-9.764,2.766-2.028,10.9-2.028,10.9-.539,15.914,3.5,24.819a1.211,1.211,0,0,1,.042.914c-.042.109-.042.042-.042.042s-2.579,11.61-5.157,13.638,5.527,4.425,15.133,5.527,13.45,3.868,13.45,3.868,1.659-1.816,1.816-5.9-2.561-33.723-2.561-33.723,10.133,2.579,16.217-.551c0,0,2.766,1.477,5.345-2.579s-1.816-8.475-1.816-8.475-4.056,4.056-15.3-1.289S492.637,331.985,489.145,332.167Z" transform="translate(-238.999 -182.554)" fill="#b45181"/>
    <path id="Tracé_1076" data-name="Tracé 1076" d="M405.769,509.35H403.56v3.136l2.209,4.976s2.948.551,3.136.551,2.579-.551,2.579-.551l.739-1.289S404.111,513.03,405.769,509.35Z" transform="translate(-210.721 -252.485)" fill="#e6e6f0"/>
    <path id="Tracé_1077" data-name="Tracé 1077" d="M519.507,514.019l-3.317,7.373L530.2,528.05l11.059.369s.92-2.579-2.766-3.868L535.542,524s-3.868-7-4.237-10.291c0,0-3.686.739-4.237,3.5C527.062,517.148,521.9,519.727,519.507,514.019Z" transform="translate(-255.173 -254.206)" fill="#b45181"/>
    <path id="Tracé_1078" data-name="Tracé 1078" d="M400.508,508.13l-1.126.92-4.952,4.056,11.423,15.133s6.447,2.766,9.4,0c0,0,1.816-1.816-2.209-3.317,0,0-3.136.551-3.136-2.579s.739-6.447,1.816-7.185c0,0-2.766-.92-3.5-.182A11.69,11.69,0,0,0,406.749,517S400.138,514.4,400.508,508.13Z" transform="translate(-207.118 -252.003)" fill="#b45181"/>
    <path id="Tracé_1079" data-name="Tracé 1079" d="M496.839,315.129a22.387,22.387,0,0,1-.738,2.76,9.582,9.582,0,0,0,12.27,5.272,15.243,15.243,0,0,1,1.556-1.4S498.128,308.494,496.839,315.129Z" transform="translate(-247.244 -175.098)" opacity="0.1"/>
    <path id="Tracé_1080" data-name="Tracé 1080" d="M495.64,357s5.714,7.555,14.007,7.742" transform="translate(-247.062 -192.357)" opacity="0.1"/>
    <g id="Groupe_189" data-name="Groupe 189" transform="translate(236.016 149.637)" opacity="0.1">
      <path id="Tracé_1081" data-name="Tracé 1081" d="M551.484,369.137a2.082,2.082,0,0,1-.339-.127q-.266.139-.545.26a3.444,3.444,0,0,0,.884-.133Z" transform="translate(-504.769 -346.734)"/>
      <path id="Tracé_1082" data-name="Tracé 1082" d="M552.143,351.518a9.151,9.151,0,0,0-.642-.738,6.865,6.865,0,0,1-4.2,1.441,10.17,10.17,0,0,0,4.843-.7Z" transform="translate(-503.467 -339.539)"/>
      <path id="Tracé_1083" data-name="Tracé 1083" d="M524.71,369.92l.036.393a36.6,36.6,0,0,0,7.373.605A38.366,38.366,0,0,1,524.71,369.92Z" transform="translate(-494.551 -347.093)"/>
      <path id="Tracé_1084" data-name="Tracé 1084" d="M492.335,390.8c-9.582-1.108-17.688-3.5-15.133-5.527s5.157-13.638,5.157-13.638,0,.067.042-.042a1.211,1.211,0,0,0-.042-.914c-4.038-8.929-3.5-24.819-3.5-24.819s-.551-7.924,2.028-10.9c1.919-2.2,6.392-2.651,8.553-2.742a3.914,3.914,0,0,0-.605,0s-7.185-.182-9.764,2.766-2.028,10.9-2.028,10.9-.539,15.914,3.5,24.819a1.211,1.211,0,0,1,.042.914c-.042.109-.042.042-.042.042s-2.561,11.574-5.163,13.6,5.527,4.425,15.133,5.527,13.45,3.868,13.45,3.868a4.726,4.726,0,0,0,.508-.745A37.819,37.819,0,0,0,492.335,390.8Z" transform="translate(-474.888 -332.211)"/>
    </g>
    <circle id="Ellipse_488" data-name="Ellipse 488" cx="9.582" cy="9.582" r="9.582" transform="translate(248.487 129.159)" fill="#fdc2cc"/>
    <path id="Tracé_1085" data-name="Tracé 1085" d="M503.681,299.664c-.793,1.985-3.16,2.736-5.236,3.251-2.966.726-6.162,1.441-9,.315a1.967,1.967,0,0,0-1.211-.236,1.61,1.61,0,0,0-.8.7c-3.13,4.455-2.621,10.394-3.432,15.781a8.766,8.766,0,0,1-1.816,4.661c-2.2,2.421-6.362,2.331-8.39,4.9-1.338,1.695-1.35,4.05-1.338,6.211q0,3.456-.061,6.919a10.217,10.217,0,0,1-.793,4.425c-1.162,2.276-3.753,3.36-6.144,4.237a10.534,10.534,0,0,1-4.625.969,3.614,3.614,0,0,1-3.4-2.809c-.285-2.167,1.949-3.68,3.487-5.242,2.458-2.488,3.469-6.108,3.559-9.607a10.29,10.29,0,0,0-.605-4.159c-.563-1.374-1.568-2.53-2.173-3.886-1.864-4.177.436-9.007,3.19-12.664s6.138-7.222,6.725-11.756a16.305,16.305,0,0,1,.418-2.912c.424-1.32,1.429-4.964,2.536-5.8a13.178,13.178,0,0,1,6.053-2.518c1.7-.248,3.438-.157,5.127-.484,1.973-.381,3.808-1.32,5.781-1.671,4.268-.757,8.9,4.2,10.769,8.111C502.815,297.6,504.165,298.447,503.681,299.664Z" transform="translate(-231.974 -165.208)" opacity="0.1"/>
    <path id="Tracé_1086" data-name="Tracé 1086" d="M503.681,299.054c-.793,1.985-3.16,2.736-5.236,3.251-2.966.726-6.162,1.441-9,.315a1.967,1.967,0,0,0-1.211-.236,1.61,1.61,0,0,0-.8.7c-3.13,4.455-2.621,10.394-3.432,15.781a8.766,8.766,0,0,1-1.816,4.661c-2.2,2.421-6.362,2.331-8.39,4.9-1.338,1.695-1.35,4.05-1.338,6.211q0,3.456-.061,6.919a10.217,10.217,0,0,1-.793,4.425c-1.162,2.276-3.753,3.36-6.144,4.237a10.534,10.534,0,0,1-4.625.969,3.614,3.614,0,0,1-3.4-2.809c-.285-2.167,1.949-3.68,3.487-5.242,2.458-2.488,3.469-6.108,3.559-9.607a10.29,10.29,0,0,0-.605-4.159c-.563-1.374-1.568-2.53-2.173-3.886-1.864-4.177.436-9.007,3.19-12.664s6.138-7.222,6.725-11.756a16.305,16.305,0,0,1,.418-2.912c.424-1.32,1.429-4.964,2.536-5.8a13.178,13.178,0,0,1,6.053-2.518c1.7-.248,3.438-.157,5.127-.484,1.973-.381,3.808-1.32,5.781-1.671,4.268-.757,8.9,4.2,10.769,8.111C502.815,296.99,504.165,297.837,503.681,299.054Z" transform="translate(-231.974 -164.968)" fill="#f569bc"/>
    <path id="Tracé_1087" data-name="Tracé 1087" d="M585,276.09H744.3V435.383H585Z" transform="translate(-282.33 -160.424)" fill="#f7df1e"/>
    <path id="Tracé_1088" data-name="Tracé 1088" d="M654.21,456.32l12.191-7.379c2.355,4.171,4.492,7.7,9.625,7.7,4.921,0,8.021-1.925,8.021-9.407v-50.9h14.97V447.44c0,15.5-9.08,22.561-22.349,22.561-11.974,0-18.923-6.2-22.452-13.687m52.93-1.6,12.185-7.058c3.208,5.242,7.379,9.08,14.758,9.08,6.2,0,10.157-3.1,10.157-7.379,0-5.133-4.062-6.949-10.9-9.946l-3.741-1.6c-10.8-4.594-17.966-10.369-17.966-22.561,0-11.229,8.553-19.782,21.919-19.782,9.516,0,16.344,3.317,21.277,11.973l-11.653,7.488c-2.567-4.6-5.345-6.417-9.625-6.417-4.383,0-7.167,2.778-7.167,6.417,0,4.492,2.778,6.308,9.195,9.08l3.741,1.6c12.712,5.448,19.891,11.011,19.891,23.523,0,13.475-10.587,20.854-24.819,20.854-13.923,0-22.881-6.659-27.24-15.291" transform="translate(-309.645 -207.536)"/>
    <path id="Tracé_1089" data-name="Tracé 1089" d="M899.989,558.205s-6.217.436-10.055-6.223a22.32,22.32,0,0,0-2.645-3.759,12.711,12.711,0,0,1-1.858-6.749c.212-4.933-4.933-31.955-4.933-31.955s.642-10.291-4.5-16.725c-3.39-4.237-8.263-16.344-11.2-24.165a1.618,1.618,0,0,0,.69.363l-.121-.672h.121l-1.519-8.348a38.061,38.061,0,0,1-5.545-8.4l.345-.073,4.552-.956s7.4-10.515,7.869-15.684h1.459a177.969,177.969,0,0,1,20.5,1.071h0c0-.03-.048-.163-.109-.375h0a25.73,25.73,0,0,1-.666-3.166h.424l4.237-.278s14.583-16.3,9.219-19.3-10.938,13.511-10.938,13.511l-1.816.327-.49.091c.048-.073.1-.139.151-.206s-23.8-1.065-27.476-6.864c0,0-10.509-8.366-10.938-13.923a6.29,6.29,0,0,0-3.777-5.351,8.244,8.244,0,0,0-4.171-.781l-4.921.339.345.605h-.139a16.562,16.562,0,0,1-.775-2.179h.1c-.036-.151-.067-.3-.1-.454a11.58,11.58,0,0,0,8.529-14.262,4.631,4.631,0,0,0,1.447-.042,4.241,4.241,0,0,0,3.142-4.05v-.43a6.223,6.223,0,0,0-2.391-4.782,34.923,34.923,0,0,1-3.027-2.306,22.7,22.7,0,0,1-2.464-3.814,11.32,11.32,0,0,0-5.811-4.522c-1.774-.605-3.953-.666-5.315.605-.7.66-1.108,1.616-1.895,2.173-1.132.811-2.669.569-4.056.732a7.736,7.736,0,0,0-5.829,4.364,10.054,10.054,0,0,0-.956,4.613,12.316,12.316,0,0,0,.387,3.239c.266,1.053.66,2.07.95,3.123.605,2.179.745,4.473,1.441,6.622a8.335,8.335,0,0,0,2.682,4.074l-.206.884c-.133,0-3.475.745-5.781,5.787-1.816,3.977-8,8.081-10.714,9.74a4.467,4.467,0,0,0-2.022,2.809,14.586,14.586,0,0,0-.345,3.565,24.685,24.685,0,0,0,2.567,10.7c4.716,10.291,8.148,14.794,8.148,14.794s.26,3.154.278,6.477a19.114,19.114,0,0,1-.708,6.174c-.448,1.041-.605,3.7-.569,6.737,0,5.823.569,13.42.569,13.42s1.64.315,4.177.684l1.58,27.8a13.366,13.366,0,0,1-3.027,9.286,20.544,20.544,0,0,1-3.807,3.632c-4.5,3.214-14.153,37.1-14.153,37.1a11.881,11.881,0,0,1,1.247.091l-2.966,8.275s11.852,9.08,19.062,6.6a6.986,6.986,0,0,1,2.421-.339c1.422,0,4.467-1.126,2.772-2.609a109.868,109.868,0,0,1-9.243-9.613,4.9,4.9,0,0,1,.666.393v-.067l.1.067a6.814,6.814,0,0,1,.079-.878l-.1-.036c.218-2.228.908-7.869,2.276-8.523,1.713-.86,14.371-25.951,14.371-25.951l12.651-32.6s10.079,17.373,18.656,20.369v7.264s4.716,21.447,6.435,23.8,0,11.792,0,11.792a5.882,5.882,0,0,0,1.156,1.017l-1.374,7.772s9.867-.43,26.592,4.716C898.918,564.422,905.353,561.638,899.989,558.205ZM860.534,446.05l-2.088.521-.412.1c-.042-.26-.073-.412-.073-.412a4.236,4.236,0,0,1-1.519.369,27.94,27.94,0,0,1-1.271-7.234,48.739,48.739,0,0,1-1.277-8.959,6.423,6.423,0,0,1,.847-3.693l.7.054.484.46.036.03.248.224h0l.26.23.042.036.278.248.048.042.284.242h0l.321.266.073.061.339.272h0l.333.266.079.061.369.278.079.054.351.26.061.042.4.285.1.067.424.291h.036l.412.272.1.067.442.285.1.061.412.254.079.048.472.278.115.067.49.272h.036l.478.254.115.061.509.254.1.048.472.218.091.042.533.23.127.054.551.224h0C862.289,437.272,860.534,446.05,860.534,446.05Z" transform="translate(-368.135 -194.844)" fill="url(#linear-gradient)"/>
    <path id="Tracé_1090" data-name="Tracé 1090" d="M808.457,668.16l-3.977,11.1s10.9,8.354,17.978,6.622a19.779,19.779,0,0,1,3.251-.527c1.465-.109,3.989-1.18,2.421-2.536-5.024-4.395-11.725-12.561-11.725-12.561Z" transform="translate(-368.952 -315.162)" fill="#4f4d59"/>
    <path id="Tracé_1091" data-name="Tracé 1091" d="M919.113,664.794l-1.883,10.678s9.631-.418,25.963,4.607c0,0,6.283-2.724,1.047-6.053,0,0-6.053.418-9.837-6.053s-6.053-5.654-6.053-5.654Z" transform="translate(-413.451 -312.844)" fill="#4f4d59"/>
    <path id="Tracé_1092" data-name="Tracé 1092" d="M825.832,525.466l1.816,32.494a13.438,13.438,0,0,1-3.2,9.5,19.7,19.7,0,0,1-3.457,3.226c-4.395,3.142-13.82,36.217-13.82,36.217s10.678.605,13.608,2.724c0,0,.605-8.372,2.3-9.213S837.1,575.085,837.1,575.085l12.355-31.822s9.837,16.949,18.214,19.891v7.119s4.607,20.938,6.283,23.239,0,11.5,0,11.5,4.843,6.053,15.908-.418c0,0-3.559-3.977-3.347-8.8s-4.843-31.193-4.843-31.193.605-10.048-4.395-16.344-13.311-30.345-13.311-30.345l-5.763-12.4Z" transform="translate(-370.013 -250.973)" fill="#c48c96"/>
    <g id="Groupe_190" data-name="Groupe 190" transform="translate(437.308 254.553)" opacity="0.1">
      <path id="Tracé_1093" data-name="Tracé 1093" d="M809.3,606.9s9.419-33.075,13.82-36.217a19.971,19.971,0,0,0,3.632-3.438,13.317,13.317,0,0,0,3.027-9.286l-1.846-32.5,30.872-19.032-.418-.9-32.337,19.94,1.846,32.5a13.317,13.317,0,0,1-3.027,9.286,19.982,19.982,0,0,1-3.632,3.438c-4.389,3.136-13.82,36.211-13.82,36.211s10.678.605,13.608,2.724a6.405,6.405,0,0,1,.079-.854C816.984,607.359,809.3,606.9,809.3,606.9Z" transform="translate(-807.42 -505.53)"/>
      <path id="Tracé_1094" data-name="Tracé 1094" d="M904.414,629.622s1.677-9.213,0-11.5-6.283-23.239-6.283-23.239v-7.131c-8.372-2.93-18.214-19.891-18.214-19.891l-.726,1.9c2.839,4.5,10.412,15.678,17.064,18v7.119s4.607,20.938,6.283,23.239,0,11.5,0,11.5,2.337,2.942,7.494,2.542A8.2,8.2,0,0,1,904.414,629.622Z" transform="translate(-835.745 -530.13)"/>
    </g>
    <path id="Tracé_1095" data-name="Tracé 1095" d="M952.907,465.772l-4.11.272-2.167.145v-5.236l2.845-.515,1.762-.321s5.448-16.12,10.678-13.19S952.907,465.772,952.907,465.772Z" transform="translate(-425.054 -227.708)" fill="#714b4f"/>
    <path id="Tracé_1096" data-name="Tracé 1096" d="M845.723,407s-2.724,10.466-3.559,16.949,19.467,1.259,19.467,1.259-7.748-9.419-3.347-14.443Z" transform="translate(-383.815 -212.09)" fill="#714b4f"/>
    <path id="Tracé_1097" data-name="Tracé 1097" d="M867.178,455.77l.418,3.977-6.489-.418-6.489-5.654-6.489-18.22-4.177-6.5-3.142-3.977,1.259-4.843s.575.5,1.544,1.241c3.19,2.421,10.666,7.512,16.132,6.108a6.513,6.513,0,0,0,.745-.236l8.166,14.026Z" transform="translate(-383.29 -217.276)" fill="#e6e6f0"/>
    <path id="Tracé_1098" data-name="Tracé 1098" d="M833.628,418.106s-3.348.605-5.654,5.654c-1.768,3.862-7.748,7.869-10.418,9.486a4.467,4.467,0,0,0-2.028,2.821c-.539,2.385-.745,6.834,2.185,13.233,4.607,10.048,7.954,14.443,7.954,14.443s.835,10.048-.418,12.978,0,19.05,0,19.05,21.98,4.189,29.31,0,6.283-20.309,6.283-20.309,6.907,14.655,9.419,15.073l-1.465-8.166s-8.166-8.8-8.584-20.1c0,0-2.512-10.26-.418-12.978,0,0,35.382,2.93,37.476.418,0,0-23.239-1.047-26.8-6.7,0,0-10.26-8.166-10.678-13.608a6.017,6.017,0,0,0-3.142-4.933,8.2,8.2,0,0,0-4.691-1.047l-4.728.327s8.166,14.443,7.748,16.344.418,17.167.418,17.167-9.449-20.309-13.608-22.609-9.007-11.768-9.007-11.768l.835-4.782" transform="translate(-373.185 -216.471)" opacity="0.1"/>
    <path id="Tracé_1099" data-name="Tracé 1099" d="M867.178,455.77l.418,3.977-6.489-.418-6.489-5.654-6.489-18.22-4.177-6.5-3.142-3.977,1.259-4.843s.575.5,1.544,1.241l-.291,1.653s4.843,9.455,9,11.762S865.931,457.4,865.931,457.4s-.835-15.285-.418-17.167c.284-1.277-3.384-8.335-5.769-12.748a6.513,6.513,0,0,0,.745-.236l8.166,14.026Z" transform="translate(-383.29 -217.276)" opacity="0.1"/>
    <path id="Tracé_1100" data-name="Tracé 1100" d="M948.8,475.085l-2.167.145v-5.236l2.845-.515C948.482,470.794,948.519,473.118,948.8,475.085Z" transform="translate(-425.054 -236.749)" opacity="0.1"/>
    <path id="Tracé_1101" data-name="Tracé 1101" d="M833.628,417.08s-3.348.605-5.654,5.654c-1.768,3.862-7.748,7.869-10.418,9.486a4.467,4.467,0,0,0-2.028,2.821c-.539,2.385-.745,6.834,2.185,13.233,4.607,10.048,7.954,14.443,7.954,14.443s.835,10.048-.418,12.978,0,19.05,0,19.05,21.98,4.189,29.31,0,6.283-20.309,6.283-20.309,6.9,14.631,9.419,15.079l-1.465-8.166s-8.166-8.8-8.584-20.1c0,0-2.512-10.26-.418-12.978,0,0,8.166,8.8,17.379,8.584a173.341,173.341,0,0,1,20.1,1.047s-2.094-6.7,0-9.213c0,0-23.239-1.047-26.8-6.7,0,0-10.26-8.166-10.678-13.608a6.017,6.017,0,0,0-3.142-4.933,8.2,8.2,0,0,0-4.691-1.047l-4.728.327s8.166,14.443,7.748,16.344.418,17.167.418,17.167-9.449-20.321-13.608-22.621-9.007-11.743-9.007-11.743l.835-4.782" transform="translate(-373.185 -216.069)" fill="#c48c96"/>
    <path id="Tracé_1102" data-name="Tracé 1102" d="M834.191,453.39s5.024,16.949,7.954,19.05,20.727,12.772,25.963,10.26c0,0,1.259,6.283-.605,7.748,0,0-19.522-.763-19.679-.835,0,0-12.773-1.677-14.867-7.954s-4.607-16.949-4.607-16.949Z" transform="translate(-378.373 -230.399)" opacity="0.1"/>
    <ellipse id="Ellipse_489" data-name="Ellipse 489" cx="0.732" cy="1.047" rx="0.732" ry="1.047" transform="translate(481.903 240.055)" fill="#ba7855"/>
    <ellipse id="Ellipse_490" data-name="Ellipse 490" cx="0.732" cy="1.047" rx="0.732" ry="1.047" transform="translate(483.991 247.38)" fill="#ba7855"/>
    <g id="Groupe_191" data-name="Groupe 191" transform="translate(442.02 200.993)" opacity="0.1">
      <path id="Tracé_1103" data-name="Tracé 1103" d="M826.721,494.5s-1.259-16.12,0-19.05.418-12.978.418-12.978-3.347-4.395-7.954-14.443c-2.936-6.4-2.724-10.848-2.185-13.233a4.467,4.467,0,0,1,2.028-2.821c2.669-1.634,8.644-5.624,10.418-9.486a10.93,10.93,0,0,1,4.1-4.982l.079-.46s-3.348.605-5.654,5.654c-1.768,3.862-7.748,7.869-10.418,9.486a4.467,4.467,0,0,0-2.028,2.821c-.539,2.385-.745,6.834,2.185,13.233,4.607,10.048,7.954,14.443,7.954,14.443s.835,10.048-.418,12.978,0,19.05,0,19.05,15.7,2.99,24.988,1.386C840.862,497.22,826.721,494.5,826.721,494.5Z" transform="translate(-815.205 -417.05)"/>
      <path id="Tracé_1104" data-name="Tracé 1104" d="M875.858,442.679c-.284,1.289,0,8.874.236,13.523,1.011,2.064,1.646,3.438,1.646,3.438s-.835-15.285-.418-17.167c.4-1.816-6.955-14.927-7.688-16.223l-1.526.1S876.282,440.8,875.858,442.679Z" transform="translate(-836.085 -420.681)"/>
      <path id="Tracé_1105" data-name="Tracé 1105" d="M908.326,476.844c-9.213.212-17.379-8.584-17.379-8.584a3.353,3.353,0,0,0-.527,1.132c2.421,2.252,9.08,7.827,16.441,7.657a173.341,173.341,0,0,1,20.1,1.047s-.042-.139-.109-.375a166.684,166.684,0,0,0-18.523-.878Z" transform="translate(-844.89 -437.261)"/>
      <path id="Tracé_1106" data-name="Tracé 1106" d="M893,511.49s.085,1.307.036,3.269c2.179,4.322,6.144,11.713,7.918,12.01l-.309-1.719C897.6,521.224,893,511.49,893,511.49Z" transform="translate(-845.908 -454.323)"/>
    </g>
    <path id="Tracé_1107" data-name="Tracé 1107" d="M897.51,496.228l-4.449.938-3.511.738,1.883-5.236,1.314-.327,2.04-.508s2.93-14.655,8.8-13.608S897.51,496.228,897.51,496.228Z" transform="translate(-402.526 -240.18)" fill="#714b4f"/>
    <path id="Tracé_1108" data-name="Tracé 1108" d="M893.071,506.434l-3.511.738,1.883-5.236,1.313-.327a20.912,20.912,0,0,1,.315,4.824Z" transform="translate(-402.53 -249.43)" opacity="0.1"/>
    <path id="Tracé_1109" data-name="Tracé 1109" d="M834.191,452.7s5.024,16.949,7.954,19.05,20.727,12.773,25.963,10.26c0,0,1.259,6.283-.605,7.748,0,0-19.522-.763-19.679-.835,0,0-12.773-1.677-14.867-7.954s-4.607-16.949-4.607-16.949Z" transform="translate(-378.373 -230.127)" fill="#c48c96"/>
    <path id="Tracé_1110" data-name="Tracé 1110" d="M847.753,407.74s-.424,1.64-.993,4.025a11.3,11.3,0,0,0,12.476,5.751c-.5-2.149-.393-4.322,1.078-6Z" transform="translate(-385.638 -212.382)" opacity="0.1"/>
    <circle id="Ellipse_491" data-name="Ellipse 491" cx="11.308" cy="11.308" r="11.308" transform="translate(459.602 182.373)" fill="#714b4f"/>
    <path id="Tracé_1111" data-name="Tracé 1111" d="M862.555,387.271a6.054,6.054,0,0,0,2.518.157,4.146,4.146,0,0,0,3.063-3.953,6.053,6.053,0,0,0-2.331-4.667c-.956-.8-2.1-1.362-2.978-2.252a23.121,23.121,0,0,1-2.421-3.723,11.047,11.047,0,0,0-5.672-4.413c-1.731-.605-3.856-.654-5.188.605-.684.648-1.083,1.574-1.846,2.125-1.108.787-2.609.557-3.959.714a7.549,7.549,0,0,0-5.69,4.237,10.66,10.66,0,0,0-.557,7.264c.26,1.029.648,2.022.926,3.027.605,2.131.726,4.364,1.4,6.465s2.076,4.159,4.195,4.788a13.262,13.262,0,0,1,1.35-6.834,1.961,1.961,0,0,1,.956-1.065,2.313,2.313,0,0,1,1.15,0,11.5,11.5,0,0,0,7.657-1.55c.805-.484,2.058-2.155,2.912-2.318C859.147,385.691,861.4,387.017,862.555,387.271Z" transform="translate(-381.827 -196.702)" opacity="0.1"/>
    <path id="Tracé_1112" data-name="Tracé 1112" d="M862.555,386.581a6.053,6.053,0,0,0,2.518.157,4.146,4.146,0,0,0,3.063-3.953,6.053,6.053,0,0,0-2.331-4.667c-.956-.8-2.1-1.362-2.978-2.252a23.121,23.121,0,0,1-2.421-3.723,11.047,11.047,0,0,0-5.672-4.413c-1.731-.605-3.856-.654-5.188.605-.684.648-1.083,1.574-1.846,2.125-1.108.787-2.609.557-3.959.714a7.549,7.549,0,0,0-5.69,4.237,10.66,10.66,0,0,0-.557,7.264c.26,1.029.648,2.022.926,3.027.605,2.131.726,4.364,1.4,6.465s2.076,4.159,4.195,4.788a13.263,13.263,0,0,1,1.362-6.828,1.961,1.961,0,0,1,.956-1.065,2.313,2.313,0,0,1,1.15,0,11.5,11.5,0,0,0,7.657-1.55c.805-.484,2.058-2.155,2.912-2.318C859.147,385,861.4,386.327,862.555,386.581Z" transform="translate(-381.827 -196.429)" fill="#503f43"/>
    <path id="Tracé_1113" data-name="Tracé 1113" d="M999.484,337.49l-9.225,103.33-41.465,11.5-41.35-11.5L898.23,337.49Z" transform="translate(-405.952 -184.657)" fill="#e44d26"/>
    <path id="Tracé_1114" data-name="Tracé 1114" d="M981.86,449.041l33.505-9.286,7.869-88.306H981.86Z" transform="translate(-438.958 -190.166)" fill="#f16529"/>
    <path id="Tracé_1115" data-name="Tracé 1115" d="M943.21,385.066h17.93V372.39H929.36l.3,3.4,3.118,34.928h28.366V398.044H944.372Zm2.881,31.992H933.379l1.774,19.9,25.932,7.228h.061V430.962h-.054l-14.116-3.814Z" transform="translate(-418.238 -198.431)" fill="#ebebeb"/>
    <path id="Tracé_1116" data-name="Tracé 1116" d="M913.8,291.09h6.441v6.362h5.89V291.09h6.441v19.274h-6.441v-6.453h-5.89v6.453H913.8Zm27.24,6.392h-5.672V291.09h17.785v6.392h-5.672v12.881h-6.435V297.482h0Zm14.94-6.392H962.7l4.134,6.774,4.128-6.774h6.719v19.274h-6.417v-9.552l-4.431,6.852h-.109l-4.437-6.852v9.552h-6.308Zm24.9,0h6.441v12.9h9.08v6.368H980.9V291.09Z" transform="translate(-412.097 -166.344)"/>
    <path id="Tracé_1117" data-name="Tracé 1117" d="M981.79,410.716H997.4l-1.471,16.441L981.79,430.97v13.214l25.987-7.2.188-2.143,2.978-33.372.309-3.4H981.79V410.74Zm0-25.684v.03h30.618l.254-2.851.605-6.429.3-3.4H981.79v12.645Z" transform="translate(-438.931 -198.427)" fill="#fff"/>
    <path id="Tracé_1118" data-name="Tracé 1118" d="M391.727,431.295c-1.18-3.456-2.881-7.869-4.237-8.874a1.264,1.264,0,0,0-.266-.163h-.169V417.99l-3.184.508a30.431,30.431,0,0,1-1.156-4.728,2.2,2.2,0,0,0,2.391.478c-.055-.085-.1-.176-.145-.266l.145-.061a5.914,5.914,0,0,1-.769-2.9,10.557,10.557,0,0,1,.442-2.736c.569-1.967,1.531-3.808,2.07-5.781a14.057,14.057,0,0,0,.484-3.91,14.249,14.249,0,0,0-1.489-6.447,3.765,3.765,0,0,0-1.126-1.471,14.512,14.512,0,0,0-1.38-.672,7.452,7.452,0,0,1-2-2,18,18,0,0,0-8.7-5.805,5.091,5.091,0,0,0-2.779-.218c-2.137.605-2.918,3.226-4.649,4.613-1.531,1.211-3.632,1.35-5.545,1.762a9.431,9.431,0,0,0-5.163,2.706,5.605,5.605,0,0,0-1.386,3.741,3.759,3.759,0,0,0,1.531,3.341,4.8,4.8,0,0,0,4.056.575,13.8,13.8,0,0,0,10.442,17.343l.375.666h0a28.566,28.566,0,0,1,2.585,6.762c-2.93,1.665-6.132,3.22-8.063,3.366a13.589,13.589,0,0,1-.418,2.234,12.331,12.331,0,0,1-2.536,4.994c-2.627,2.954-14.449,25.291-14.449,25.291s-.375.89-.981,2.421c-7.343.9-19.322,2.2-22.67,1.531L309.85,450.847s-4.237,3.239-3.874,7.173l-2.367-2.252s-12.482,9.522,7.228,15.739l29.988,3.481c-2.857,8.62-5.521,18.65-4.7,24.11h.248a11.338,11.338,0,0,0,1.713-.133l-.055.969-2.887,51.713s-.66,9.522,8.208,13.8c0,0,10.841,31.859,6.568,35.472,0,0,.508.266,1.362.642l-8.917,7.869s-6.568,1.64-10.182,1.314a2.609,2.609,0,0,0-2.881,1.943.425.425,0,0,1-.036.206v.636a.382.382,0,0,0,.042.212v.079a2.063,2.063,0,0,0,.073.224v.073c.03.073.067.145.1.218v.048c.042.073.085.145.133.218l.042.06q.079.115.176.23l.048.06c.067.079.139.151.218.23h.036l.242.206.054.042.3.212.073.048.345.2h.055l.369.182h.054l.43.175.091.036.478.157h.079l.515.133h.042l.605.115h.115l.605.091h.115l.7.067c1.35.1,3.172.139,5.278.133h0v.339a.382.382,0,0,0,.042.212v.079a2.063,2.063,0,0,0,.073.224v.073c.03.073.067.145.1.218v.048c.042.073.085.145.133.218l.042.061q.079.115.176.23l.048.06c.067.079.139.151.218.23h.03l.242.206.054.042.3.212.073.048.339.2h.054l.369.182h.055l.43.176.091.036.478.157h.079l.515.133h.042l.605.115h.115l.605.091h.115l.7.067c8.541.66,35.8-1.314,35.8-1.314v-.079h0v-.1h0c.272-1.271,1.58-8.662-3.069-14.128q.209-.218.4-.454s-3.632-6.241-1.64-8.208-9.619-35.823-9.619-35.823-6.241-9.855-2.627-21.023-.327-23.317-.327-23.317,8.626-2.554,8.783-13.166v-.987a3.48,3.48,0,0,0,.545.036,2.54,2.54,0,0,0,.363,0s-1.64-5.914.327-10.182,6.241-.327,10.182-17.736c2.851-12.6,5.357-27.082,6.531-34.135A17.972,17.972,0,0,0,391.727,431.295ZM316.775,468.22l-3-2.845c.993.412,2.094.811,3.323,1.211l11.289,1.326c-5.036.454-9.74.708-11.616.327Z" transform="translate(-169.735 -202.178)" fill="url(#linear-gradient-2)"/>
    <path id="Tracé_1119" data-name="Tracé 1119" d="M345.914,515.246s-23.233,3.226-28.075,2.258L304.933,505.24s-12.264,9.358,7.1,15.49l36.138,4.195Z" transform="translate(-170.284 -250.863)" fill="#fdc2cc"/>
    <path id="Tracé_1120" data-name="Tracé 1120" d="M345.914,515.246s-23.233,3.226-28.075,2.258L304.933,505.24s-12.264,9.358,7.1,15.49l36.138,4.195Z" transform="translate(-170.284 -250.863)" opacity="0.05"/>
    <path id="Tracé_1121" data-name="Tracé 1121" d="M259.973,444.328,209.767,430.4,198.58,304.92H321.517l-11.2,125.467Z" transform="translate(-129.822 -171.802)" fill="#264de4"/>
    <path id="Tracé_1122" data-name="Tracé 1122" d="M340.812,429.1l9.57-107.216H300.14V440.349Z" transform="translate(-169.904 -178.496)" fill="#2965f1"/>
    <path id="Tracé_1123" data-name="Tracé 1123" d="M239.173,378.42l1.38,15.388H275V378.42ZM236.4,347.27l1.4,15.388H274.99V347.27H236.37Zm38.59,71.12h-.067l-17.143-4.631-1.1-12.276H241.207l2.155,24.165,31.526,8.771h.073Z" transform="translate(-144.736 -188.517)" fill="#ebebeb"/>
    <path id="Tracé_1124" data-name="Tracé 1124" d="M246.38,248.56h18.638v7.8H254.171v7.8h10.848v7.8H246.38Zm22.4,0h18.638v6.78H276.544V256.7h10.848v15.593H268.747V265.17h10.848v-1.356H268.747V248.56Zm22.4,0h18.638v6.78h-10.9V256.7h10.848v15.593H291.114V265.17h10.848v-1.356H291.114V248.56Z" transform="translate(-148.687 -149.559)"/>
    <path id="Tracé_1125" data-name="Tracé 1125" d="M335.8,378.42l2.778-31.15H300v15.388h21.689l-1.4,15.739H300v15.388h18.953l-1.816,19.976L300,418.4v16.011l31.55-8.747.23-2.6,3.632-40.521.375-4.134Z" transform="translate(-169.849 -188.517)" fill="#fff"/>
    <path id="Tracé_1126" data-name="Tracé 1126" d="M373.235,738.19l-11.3,10s-6.453,1.616-10,1.289-5.163,5.484,3.226,6.132,35.17-1.289,35.17-1.289,2.579-10.327-5.163-16.132Z" transform="translate(-189.21 -342.801)" fill="#47465a"/>
    <path id="Tracé_1127" data-name="Tracé 1127" d="M373.235,738.19l-11.3,10s-6.453,1.616-10,1.289-5.163,5.484,3.226,6.132,35.17-1.289,35.17-1.289,2.579-10.327-5.163-16.132Z" transform="translate(-189.21 -342.801)" opacity="0.05"/>
    <path id="Tracé_1128" data-name="Tracé 1128" d="M390.733,757.47a17.8,17.8,0,0,1-.406,3.5s-26.78,1.937-35.17,1.289c-4.038-.309-5.751-1.816-6.053-3.257-.369,1.659,1.1,3.844,6.053,4.237,8.39.648,35.17-1.289,35.17-1.289A18.647,18.647,0,0,0,390.733,757.47Z" transform="translate(-189.208 -350.41)" fill="#fff" opacity="0.3"/>
    <path id="Tracé_1129" data-name="Tracé 1129" d="M410.84,430.08s7.1,10,4.516,16.78,13.553-7.1,13.553-7.1-5.163-9.074-2.579-18.759Z" transform="translate(-213.594 -217.616)" fill="#fdc2cc"/>
    <path id="Tracé_1130" data-name="Tracé 1130" d="M391.883,744.59l-11.283,10s-6.453,1.616-10,1.289-5.163,5.484,3.226,6.132S409,760.722,409,760.722s2.579-10.327-5.163-16.132Z" transform="translate(-196.574 -345.327)" fill="#47465a"/>
    <path id="Tracé_1131" data-name="Tracé 1131" d="M391.535,664.294a8.564,8.564,0,0,1-6.538,3c-5.642.266-11.852-3-11.852-3,4.195-3.547-6.453-34.849-6.453-34.849-8.711-4.195-8.069-13.553-8.069-13.553l2.821-50.787.714-12.76,9.038-5.484,7.119,5.448,6.755,5.182a27.158,27.158,0,0,1,.847,5.036c.787,11.858-8.59,14.649-8.59,14.649s3.874,11.937.321,22.912,2.579,20.654,2.579,20.654,11.616,33.56,9.685,35.5S391.535,664.294,391.535,664.294Z" transform="translate(-192.982 -267.289)" fill="#565171"/>
    <path id="Tracé_1132" data-name="Tracé 1132" d="M391.535,664.294a8.564,8.564,0,0,1-6.538,3c-5.642.266-11.852-3-11.852-3,4.195-3.547-6.453-34.849-6.453-34.849-8.711-4.195-8.069-13.553-8.069-13.553l2.821-50.787.714-12.76,9.038-5.484,7.119,5.448,6.755,5.182a27.158,27.158,0,0,1,.847,5.036c.787,11.858-8.59,14.649-8.59,14.649s3.874,11.937.321,22.912,2.579,20.654,2.579,20.654,11.616,33.56,9.685,35.5S391.535,664.294,391.535,664.294Z" transform="translate(-192.982 -267.289)" opacity="0.05"/>
    <path id="Tracé_1133" data-name="Tracé 1133" d="M406.805,670.676c-5.484,6.774-18.39,0-18.39,0a2.058,2.058,0,0,0,.563-.878c2.367-6.435-7.984-37.2-7.984-37.2-8.711-4.195-9.685-14.2-9.685-14.2L369.027,566.7l-.3-6.695,13.578-5.182,4.171-1.592,13.892,10.648a25.164,25.164,0,0,1,.872,6.768c-.176,10.418-8.632,12.936-8.632,12.936s3.874,11.937.321,22.912,2.6,20.624,2.6,20.624,11.616,33.56,9.685,35.5S406.805,670.676,406.805,670.676Z" transform="translate(-196.975 -269.803)" fill="#565171"/>
    <path id="Tracé_1134" data-name="Tracé 1134" d="M399.1,568.135c-2.791-.4-8.438-3.759-11.338-5.581-1.108-.7-1.816-1.162-1.816-1.162s-2.906-8.069-10.648-1.937a28.991,28.991,0,0,1-8.414,4.758,19.687,19.687,0,0,1-3.59.9l.714-12.76,9.038-5.484,7.119,5.448,4.171-1.592,13.892,10.642a25.164,25.164,0,0,1,.872,6.768Z" transform="translate(-194.828 -267.293)" opacity="0.1"/>
    <path id="Tracé_1135" data-name="Tracé 1135" d="M415.245,465.612c-1.15,6.925-3.632,21.187-6.417,33.529-3.874,17.1-8.069,13.227-10,17.421s-.321,10-.321,10c-3.226.321-13.874-6.774-13.874-6.774s-2.906-8.069-10.648-1.937-13.874,5.805-13.874,5.805c-1.616-10.648,10.327-39.044,10.327-39.044s11.616-21.943,14.2-24.819a12.106,12.106,0,0,0,2.494-4.9,13.348,13.348,0,0,0,.412-2.191c4.195-.321,14.528-7.421,14.528-7.421l8.069-1.289v4.195a1.208,1.208,0,0,1,.266.163c1.326,1.011,3.027,5.321,4.159,8.717A17.658,17.658,0,0,1,415.245,465.612Z" transform="translate(-193.514 -226.689)" fill="#e1a0a7"/>
    <path id="Tracé_1136" data-name="Tracé 1136" d="M358.31,516.935l-4.171-.484-31.967-3.711c-19.371-6.132-7.1-15.49-7.1-15.49l12.906,12.264c3.723.745,18.329-.993,24.873-1.816,1.961-.254,3.2-.424,3.2-.424Z" transform="translate(-174.285 -247.709)" fill="#fdc2cc"/>
    <path id="Tracé_1137" data-name="Tracé 1137" d="M416.9,457.166s-8.39-6.774-21,15.164-15.49,18.39-15.49,18.39,2.579,9.685,1.289,11.616c0,0,8.711-.648,11.937,0s23.233-24.522,23.233-24.522S427.226,463.619,416.9,457.166Z" transform="translate(-201.584 -231.5)" opacity="0.1"/>
    <path id="Tracé_1138" data-name="Tracé 1138" d="M416.385,455.036S408,448.263,395.41,470.2s-15.49,18.39-15.49,18.39,10,10.969,13.226,11.616,23.233-24.522,23.233-24.522S426.712,461.489,416.385,455.036Z" transform="translate(-201.391 -230.659)" opacity="0.1"/>
    <path id="Tracé_1139" data-name="Tracé 1139" d="M381.259,523.005c.133-2.391-.769-6.592-1.289-8.771,1.961-.254,3.2-.424,3.2-.424l2.258,9.685Z" transform="translate(-201.411 -254.245)" opacity="0.1"/>
    <path id="Tracé_1140" data-name="Tracé 1140" d="M416.9,456.1s-8.39-6.774-21,15.17-15.49,18.39-15.49,18.39,2.579,9.685,1.289,11.616c0,0,8.711-.648,11.937,0s23.233-24.522,23.233-24.522S427.226,462.549,416.9,456.1Z" transform="translate(-201.584 -231.078)" fill="#e1a0a7"/>
    <path id="Tracé_1141" data-name="Tracé 1141" d="M426.885,422.09l-15.515,9.025a33.094,33.094,0,0,1,1.816,2.954,13.617,13.617,0,0,0,2.712.272c4.134,0,6.053-4.34,8.553-7.264C424.27,424.753,426.17,424.693,426.885,422.09Z" transform="translate(-213.803 -218.046)" opacity="0.1"/>
    <circle id="Ellipse_492" data-name="Ellipse 492" cx="13.553" cy="13.553" r="13.553" transform="translate(188.208 188.56)" fill="#fdc2cc"/>
    <path id="Tracé_1142" data-name="Tracé 1142" d="M389.1,394.905a9.261,9.261,0,0,1,5.073-2.664c1.883-.406,3.947-.527,5.448-1.731,1.7-1.362,2.464-3.953,4.564-4.534a5.006,5.006,0,0,1,2.73.218,17.682,17.682,0,0,1,8.547,5.7,7.318,7.318,0,0,0,1.973,1.967,14.287,14.287,0,0,1,1.356.66,3.7,3.7,0,0,1,1.1,1.447,14.031,14.031,0,0,1,.981,9.849c-.527,1.943-1.471,3.747-2.034,5.684a7.5,7.5,0,0,0,.321,5.86,2.39,2.39,0,0,1-2.869-1.059,11.355,11.355,0,0,1-1.138-3.136,11.955,11.955,0,0,0-3.5-5.448c-1.017-.9-2.833-1.5-3.541-.345-.272.448-.254,1.023-.49,1.489a2,2,0,0,1-2.682.605,4.11,4.11,0,0,1-1.677-2.488c-1.326-4.5-3.6-7.325-8.4-5.406-1.816.714-3.9,1.211-5.63,0C387.026,399.954,387.468,396.739,389.1,394.905Z" transform="translate(-204.471 -203.755)" opacity="0.1"/>
    <path id="Tracé_1143" data-name="Tracé 1143" d="M389.1,394.365a9.261,9.261,0,0,1,5.073-2.663c1.883-.406,3.947-.527,5.448-1.731,1.7-1.362,2.464-3.953,4.564-4.534a5.006,5.006,0,0,1,2.73.218,17.682,17.682,0,0,1,8.547,5.7,7.318,7.318,0,0,0,1.973,1.967,14.272,14.272,0,0,1,1.356.66,3.7,3.7,0,0,1,1.1,1.447,14.031,14.031,0,0,1,.981,9.849c-.527,1.943-1.471,3.747-2.034,5.684a7.5,7.5,0,0,0,.321,5.86,2.39,2.39,0,0,1-2.869-1.059,11.355,11.355,0,0,1-1.138-3.136,11.955,11.955,0,0,0-3.5-5.448c-1.017-.9-2.833-1.5-3.541-.345-.272.448-.254,1.023-.49,1.489a2,2,0,0,1-2.682.605,4.11,4.11,0,0,1-1.677-2.488c-1.326-4.5-3.6-7.324-8.4-5.406-1.816.714-3.9,1.211-5.63,0C387.026,399.42,387.468,396.205,389.1,394.365Z" transform="translate(-204.471 -203.542)" fill="#8f5a6a"/>
    <path id="Tracé_1144" data-name="Tracé 1144" d="M428.093,448.312h-6.556s-12.906,6.453-13.226,6.132c-.218-.218-2.216.157-3.481.418a13.347,13.347,0,0,0,.412-2.191c4.195-.321,14.528-7.421,14.528-7.421l8.069-1.289v4.195A1.208,1.208,0,0,1,428.093,448.312Z" transform="translate(-211.222 -226.677)" opacity="0.05"/>
    <path id="Tracé_1145" data-name="Tracé 1145" d="M409.383,763.86a17.794,17.794,0,0,1-.406,3.5s-26.78,1.937-35.17,1.289c-4.038-.309-5.751-1.816-6.053-3.257-.369,1.659,1.1,3.844,6.053,4.237,8.39.648,35.17-1.289,35.17-1.289a18.646,18.646,0,0,0,.406-4.479Z" transform="translate(-196.568 -352.932)" fill="#fff" opacity="0.3"/>
    <g id="Groupe_192" data-name="Groupe 192" transform="translate(166.671 221.465)" opacity="0.05">
      <path id="Tracé_1146" data-name="Tracé 1146" d="M371.063,563.986a27.618,27.618,0,0,1-10.733,5.448,4.528,4.528,0,0,0,.085.708s6.132.321,13.874-5.805a10.4,10.4,0,0,1,4.147-2.167C376.747,561.341,374.337,561.4,371.063,563.986Z" transform="translate(-360.33 -494.609)"/>
      <path id="Tracé_1147" data-name="Tracé 1147" d="M437.429,459.75c-1.156-3.4-2.833-7.7-4.159-8.717a1.207,1.207,0,0,0-.266-.163s-2.67.091-2.579.163c1.326,1.011,2.621,5,3.777,8.39a17.657,17.657,0,0,1,.7,8.571c-1.15,6.925-3.632,21.187-6.417,33.529-3.874,17.1-8.069,13.226-10,17.421-1.586,3.438-.793,7.954-.448,9.473a8.119,8.119,0,0,0,3.354.853s-1.616-5.805.321-10,6.132-.321,10-17.421c2.8-12.373,5.266-26.635,6.417-33.529a17.657,17.657,0,0,0-.7-8.571Z" transform="translate(-382.907 -450.87)"/>
    </g>
    <path id="Tracé_1148" data-name="Tracé 1148" d="M497.667,557.8a7.064,7.064,0,0,0,2.318-3.5,3.105,3.105,0,0,0-1.622-3.565c-1.489-.569-3.081.46-4.286,1.507s-2.591,2.234-4.171,2.01a6.344,6.344,0,0,0,1.961-5.938,2.482,2.482,0,0,0-.545-1.211c-.829-.884-2.324-.5-3.317.194-3.148,2.216-4.025,6.489-4.044,10.339a19.823,19.823,0,0,1-.061-4.237c-.012-1.4-.4-3.027-1.6-3.765a4.843,4.843,0,0,0-2.421-.575c-1.416-.055-2.99.091-3.959,1.126-1.211,1.283-.89,3.444.157,4.843a15.754,15.754,0,0,0,4.1,3.281,9.08,9.08,0,0,1,2.93,2.791,2.762,2.762,0,0,1,.218.5h8.868A24.716,24.716,0,0,0,497.667,557.8Z" transform="translate(-238.974 -267.182)" fill="#4c6cf6"/>
    <path id="Tracé_1149" data-name="Tracé 1149" d="M519.359,742.961a9.64,9.64,0,0,0,3.148-4.746c.412-1.883-.393-4.146-2.2-4.843-2.016-.775-4.177.605-5.811,2.04s-3.511,3.027-5.648,2.724a8.6,8.6,0,0,0,2.657-8.051,3.365,3.365,0,0,0-.738-1.634c-1.12-1.211-3.154-.684-4.492.26-4.237,3.027-5.448,8.8-5.478,14.013-.43-1.883-.067-3.844-.079-5.775s-.539-4.068-2.167-5.109a6.532,6.532,0,0,0-3.305-.775c-1.919-.073-4.056.121-5.363,1.525-1.628,1.743-1.211,4.667.212,6.586s3.571,3.123,5.551,4.449a12.313,12.313,0,0,1,3.965,3.783,3.745,3.745,0,0,1,.3.678h12.028A33.508,33.508,0,0,0,519.359,742.961Z" transform="translate(-244.376 -338.679)" fill="#4c6cf6"/>
  </g>
</svg>
