<svg xmlns="http://www.w3.org/2000/svg" width="741.821" height="520.642" viewBox="0 0 741.821 520.642">
  <g id="Groupe_181" data-name="Groupe 181" transform="translate(0 0)">
    <path id="Tracé_971" data-name="Tracé 971" d="M913.792,758.316c-4.815,18.336-21.687,29.795-21.687,29.795s-9.066-18.27-4.251-36.606,21.687-29.795,21.687-29.795S918.607,739.98,913.792,758.316Z" transform="translate(-318.064 -274.077)" fill="#3f3d56"/>
    <path id="Tracé_972" data-name="Tracé 972" d="M908.764,762.61c-13.486,13.324-14.995,33.663-14.995,33.663s20.356-1.262,33.843-14.586,14.995-33.664,14.995-33.664S922.25,749.287,908.764,762.61Z" transform="translate(-320.339 -282.25)" fill="#4c6cf6"/>
    <path id="Tracé_973" data-name="Tracé 973" d="M196.485,661.01h25.4l62.588-24.491s44.446-18.141,40.818,16.327-9.978,80.729-9.978,80.729-19.955-9.071-30.84-6.349-3.628-55.331-3.628-55.331-88.893,42.632-97.056,37.19-9.978-43.539-9.978-43.539Z" transform="translate(-96.707 -246.133)" fill="#2f2e41"/>
    <path id="Tracé_974" data-name="Tracé 974" d="M196.485,661.01h25.4l62.588-24.491s44.446-18.141,40.818,16.327-9.978,80.729-9.978,80.729-19.955-9.071-30.84-6.349-3.628-55.331-3.628-55.331-88.893,42.632-97.056,37.19-9.978-43.539-9.978-43.539Z" transform="translate(-96.707 -246.133)" opacity="0.1"/>
    <path id="Tracé_975" data-name="Tracé 975" d="M254.482,558.82l30.737,44.161,71.658,59.866s66.216,15.42,57.145,26.3-64.4-10.885-64.4-10.885-82.543-59.866-85.264-64.4S231.7,566.7,231.7,566.7Z" transform="translate(-114.69 -223.48)" fill="#a0616a"/>
    <path id="Tracé_976" data-name="Tracé 976" d="M254.482,558.82l30.737,44.161,71.658,59.866s66.216,15.42,57.145,26.3-64.4-10.885-64.4-10.885-82.543-59.866-85.264-64.4S231.7,566.7,231.7,566.7Z" transform="translate(-114.69 -223.48)" fill="#ffccb0" opacity="0.79"/>
    <path id="Tracé_977" data-name="Tracé 977" d="M224.794,507.092l19.955,39s-4.535,19.048-11.792,20.862-38.1-23.584-38.1-23.584Z" transform="translate(-103.247 -207.413)" fill="#d0cde1"/>
    <path id="Tracé_978" data-name="Tracé 978" d="M224.794,507.092l19.955,39s-4.535,19.048-11.792,20.862-38.1-23.584-38.1-23.584Z" transform="translate(-103.247 -207.413)" opacity="0.1"/>
    <path id="Tracé_979" data-name="Tracé 979" d="M579.011,644.377l5.895,24.316a1.518,1.518,0,0,1-.029.821l-26.74,83.561a1.519,1.519,0,0,1-2.956-.291l-3.7-32.552a1.518,1.518,0,0,1,.065-.642l24.544-75.325a1.519,1.519,0,0,1,2.92.113Z" transform="translate(-214.016 -249.695)" fill="#2f2e41"/>
    <path id="Tracé_980" data-name="Tracé 980" d="M515.68,575.493l5.442,20.863-23.584,76.193L492.1,648.965Z" transform="translate(-152.853 -178.757)" fill="#f2f2f2"/>
    <path id="Tracé_981" data-name="Tracé 981" d="M415.843,793.549c.907,2.721,94.335-.907,95.242-1.814a19.689,19.689,0,0,0,2-3.628c.853-1.814,1.633-3.628,1.633-3.628l-3.628-29.371-92.521-3.284s-2.313,24.89-2.785,36.283A27.212,27.212,0,0,0,415.843,793.549Z" transform="translate(-171.842 -283.431)" fill="#2f2e41"/>
    <path id="Tracé_982" data-name="Tracé 982" d="M457.417,689.965l1.814,25.4H418.413v-25.4Z" transform="translate(-129.966 -214.314)" opacity="0.1"/>
    <path id="Tracé_983" data-name="Tracé 983" d="M388.051,701.784l.243-.048-1.151,10.934H364.467V701.784Z" transform="translate(-113.209 -217.971)" opacity="0.1"/>
    <path id="Tracé_984" data-name="Tracé 984" d="M415.843,809.9c.907,2.721,94.335-.907,95.242-1.814a19.689,19.689,0,0,0,2-3.628h-97.3A27.212,27.212,0,0,0,415.843,809.9Z" transform="translate(-171.842 -299.779)" opacity="0.1"/>
    <circle id="Ellipse_477" data-name="Ellipse 477" cx="40.818" cy="40.818" r="40.818" transform="translate(94.335 205.345)" fill="#ffccb0"/>
    <path id="Tracé_985" data-name="Tracé 985" d="M226.074,466.251s-13.606,23.584-16.327,36.283-40.818-25.4-40.818-25.4l-4.989-13.152S199.769,447.2,197.048,433.6,226.074,466.251,226.074,466.251Z" transform="translate(-93.642 -183.806)" fill="#ffccb0"/>
    <path id="Tracé_986" data-name="Tracé 986" d="M244.978,584.722l37.19,48.982,88.892,66.216s64.4,13.606,49.889,23.584-56.238-9.071-56.238-9.071-89.8-48.075-108.848-68.03-54.424-53.517-54.424-53.517Z" transform="translate(-105.29 -231.526)" fill="#ffccb0"/>
    <path id="Tracé_987" data-name="Tracé 987" d="M155.855,692.7l10.885,17.234L231.7,689.5a51.076,51.076,0,0,1,42.526,5.131c11.338,7.143,18.595,18.482,2.268,35.262-32.654,33.561-54.424,15.42-54.424,15.42s-109.755,51.7-127.9,26.3-19.048-38.1-19.048-38.1S144.97,689.978,155.855,692.7Z" transform="translate(-66.055 -263.31)" fill="#2f2e41"/>
    <path id="Tracé_988" data-name="Tracé 988" d="M346.68,778.409s29.026,19.048-5.442,28.119-59.866-3.628-59.866-3.628-29.933,0-29.933-15.42,9.978-17.234,9.978-17.234l30.84,4.535S329.446,764.8,346.68,778.409Z" transform="translate(-120.821 -289.152)" fill="#d0cde1"/>
    <path id="Tracé_989" data-name="Tracé 989" d="M267.172,392.286c2.778,1.238,5.533,2.7,8.554,3.064s6.46-.7,7.889-3.38a10.611,10.611,0,0,0,.9-4.8c.109-4.981-.251-10.366-3.407-14.22-2.009-2.453-4.941-4-7.021-6.393a30.211,30.211,0,0,1-3.549-5.8c-4.044-7.6-10.031-14.895-18.353-17.084a39.8,39.8,0,0,0-10.713-.819l-20.955.3a36.484,36.484,0,0,0-10.081,1.085c-6.745,2.039-11.656,7.711-16.154,13.136a82.149,82.149,0,0,0-9.264,12.786A44.865,44.865,0,0,0,179.7,392.14a20.568,20.568,0,0,0,.753,5.817,32.279,32.279,0,0,0,2.286,5.022c3.93,7.719,6.263,17.36,1.838,24.806,7.688-3.14,15.295-7.258,20.366-13.834,2.269-2.942,4.048-6.386,7.071-8.545s7.95-2.346,9.89.822a8.863,8.863,0,0,1,1,4.152c.142,2.378.138,4.848,1.146,7.007s3.41,3.9,5.7,3.254c3.949-1.112,3.571-7.174,6.613-9.927,2.31-2.091,5.874-1.691,8.842-2.641,3.458-1.106,6.052-4.1,7.531-7.417,1.124-2.52,1.107-9.116,3.234-10.481C258.636,388.463,264.7,391.184,267.172,392.286Z" transform="translate(-98.534 -156.391)" fill="#2f2e41"/>
    <path id="Tracé_990" data-name="Tracé 990" d="M129.026,472.4a10.765,10.765,0,0,1,5.6.014c5.823,1.563,18.875,5.7,21.674,12,3.628,8.164,16.327,20.863,16.327,20.863s17.234,17.234,13.606,29.026S169,559.7,169,559.7s3.628,56.238-14.513,70.751-25.4,4.535-25.4,18.141-56.238,56.238-67.123,29.933c0,0,5.442-48.982,3.628-66.216C63.808,595.321,66.426,489.345,129.026,472.4Z" transform="translate(-61.968 -196.523)" fill="#d0cde1"/>
    <path id="Tracé_991" data-name="Tracé 991" d="M182.36,504.7s55.331,40.818,45.353,58.052c0,0-33.561,16.327-40.818,15.42S151.52,545.521,144.264,542.8,133.379,491.1,182.36,504.7Z" transform="translate(-86.211 -205.931)" fill="#d0cde1"/>
    <circle id="Ellipse_478" data-name="Ellipse 478" cx="44.81" cy="44.81" r="44.81" transform="translate(298.547 118.89)" fill="#f2f2f2"/>
    <path id="Tracé_992" data-name="Tracé 992" d="M983.756,201.752H732.649V149.207H983.756Zm-250-1.106H982.65V150.313H733.755Z" transform="translate(-270.293 -96.248)" fill="#3f3d56"/>
    <rect id="Rectangle_1822" data-name="Rectangle 1822" width="250.001" height="51.438" transform="translate(445.21 63.468)" fill="#4c6cf6"/>
    <circle id="Ellipse_479" data-name="Ellipse 479" cx="3.872" cy="3.872" r="3.872" transform="translate(283.301 6.637)" fill="#4c6cf6"/>
    <circle id="Ellipse_480" data-name="Ellipse 480" cx="3.872" cy="3.872" r="3.872" transform="translate(296.576 6.637)" fill="#4c6cf6"/>
    <circle id="Ellipse_481" data-name="Ellipse 481" cx="3.872" cy="3.872" r="3.872" transform="translate(309.85 6.637)" fill="#4c6cf6"/>
    <path id="Tracé_993" data-name="Tracé 993" d="M928.2,375.484H462.487V72.386H928.2Zm-464.6-1.106h463.5V73.492h-463.5Z" transform="translate(-186.376 -72.386)" fill="#3f3d56"/>
    <rect id="Rectangle_1823" data-name="Rectangle 1823" width="464.603" height="1.106" transform="translate(276.664 16.778)" fill="#3f3d56"/>
    <path id="Tracé_994" data-name="Tracé 994" d="M478.144,87.654a4.425,4.425,0,1,1,4.425-4.425,4.425,4.425,0,0,1-4.425,4.425Zm0-7.743a3.319,3.319,0,1,0,3.319,3.319A3.319,3.319,0,0,0,478.144,79.911Z" transform="translate(-189.865 -74.38)" fill="#3f3d56"/>
    <path id="Tracé_995" data-name="Tracé 995" d="M497.4,87.654a4.425,4.425,0,1,1,4.425-4.425,4.425,4.425,0,0,1-4.425,4.425Zm0-7.743a3.319,3.319,0,1,0,3.319,3.319A3.319,3.319,0,0,0,497.4,79.911Z" transform="translate(-195.846 -74.38)" fill="#3f3d56"/>
    <path id="Tracé_996" data-name="Tracé 996" d="M516.655,87.654a4.425,4.425,0,1,1,4.425-4.425A4.425,4.425,0,0,1,516.655,87.654Zm0-7.743a3.319,3.319,0,1,0,3.319,3.319,3.319,3.319,0,0,0-3.319-3.319Z" transform="translate(-201.827 -74.38)" fill="#3f3d56"/>
    <rect id="Rectangle_1824" data-name="Rectangle 1824" width="1.106" height="285.643" transform="translate(421.978 17.331)" fill="#3f3d56"/>
    <rect id="Rectangle_1825" data-name="Rectangle 1825" width="81.306" height="11.062" transform="translate(474.801 157.772)" fill="#f2f2f2"/>
    <rect id="Rectangle_1826" data-name="Rectangle 1826" width="81.306" height="11.062" transform="translate(602.567 157.772)" fill="#f2f2f2"/>
    <path id="Tracé_997" data-name="Tracé 997" d="M838.729,304.588H756.317V292.42h82.412Zm-81.306-1.106h80.2v-9.956h-80.2Z" transform="translate(-277.644 -140.732)" fill="#3f3d56"/>
    <rect id="Rectangle_1827" data-name="Rectangle 1827" width="81.306" height="11.062" transform="translate(474.801 243.502)" fill="#f2f2f2"/>
    <path id="Tracé_998" data-name="Tracé 998" d="M838.729,428.946H756.317V416.778h82.412Zm-81.306-1.106h80.2v-9.956h-80.2Z" transform="translate(-277.644 -179.36)" fill="#3f3d56"/>
    <rect id="Rectangle_1828" data-name="Rectangle 1828" width="209.072" height="11.062" transform="translate(475.078 199.531)" fill="#f2f2f2"/>
    <path id="Tracé_999" data-name="Tracé 999" d="M966.9,366.767H756.718V354.6H966.9Zm-209.072-1.106H965.79V355.7H757.825Z" transform="translate(-277.769 -160.046)" fill="#3f3d56"/>
    <path id="Tracé_1000" data-name="Tracé 1000" d="M1024.063,304.588H941.651V292.42h82.412Zm-81.306-1.106h80.2v-9.956h-80.2Z" transform="translate(-335.212 -140.732)" fill="#3f3d56"/>
    <path id="Tracé_1001" data-name="Tracé 1001" d="M550.531,316.843a45.5,45.5,0,1,1,45.5-45.5A45.5,45.5,0,0,1,550.531,316.843Zm0-89.62a44.121,44.121,0,1,0,44.121,44.121,44.121,44.121,0,0,0-44.121-44.121Z" transform="translate(-199.591 -120.053)" fill="#3f3d56"/>
    <rect id="Rectangle_1829" data-name="Rectangle 1829" width="195.096" height="1.379" transform="translate(515.703 513.217)" fill="#3f3d56"/>
  </g>
</svg>
