<svg id="Calque_1" xmlns="http://www.w3.org/2000/svg" viewBox="0 0 125.03 110.12"><style>.st1{fill:#f5f6f8}.st2{fill:#ea4d66}.st3{fill:#ededed}.st4{fill:#d92667}.st5{fill:#4d53a0}.st7{fill:#ededed;stroke:#c6c6c6;stroke-width:.15;stroke-miterlimit:10}</style><path d="M106.24 110.12H18.72c-3.48 0-6.3-2.82-6.3-6.3V6.52c0-3.48 2.82-6.3 6.3-6.3h87.52c3.48 0 6.3 2.82 6.3 6.3v97.3c-.01 3.49-2.83 6.3-6.3 6.3z" fill="#ddd"/><path class="st1" d="M50.03 4.97h25v27.15h-25z"/><path class="st2" d="M25 32.14h25.02c.64-9.06 1.29-18.12 1.93-27.17H26.91c-.64 9.06-1.27 18.12-1.91 27.17z"/><path class="st3" d="M75.03 32.12c0 6.86-5.64 12.5-12.5 12.5s-12.5-5.64-12.5-12.5h25z"/><path class="st4" d="M50.11 32.14c0 6.86-5.64 12.5-12.5 12.5s-12.5-5.64-12.5-12.5h25z"/><path class="st3" d="M25 32.14c0 6.86-5.64 12.5-12.5 12.5S0 39 0 32.14h25z"/><path class="st4" d="M100.03 32.12c0 6.86-5.64 12.5-12.5 12.5s-12.5-5.64-12.5-12.5h25z"/><path class="st3" d="M125.03 32.12c0 6.86-5.64 12.5-12.5 12.5s-12.5-5.64-12.5-12.5h25z"/><path class="st1" d="M0 32.16c8.33-.01 16.67-.01 25-.02 1.07-9.06 2.13-18.12 3.2-27.17h-25C2.13 14.03 1.07 23.1 0 32.16z"/><path class="st2" d="M100.03 32.12H75.01c-.64-9.05-1.29-18.1-1.93-27.15h25.04c.64 9.05 1.28 18.1 1.91 27.15z"/><path class="st1" d="M125.03 32.14c-8.33-.01-16.67-.01-25-.02-1.07-9.04-2.13-18.08-3.2-27.12h25c1.07 9.05 2.13 18.1 3.2 27.14z"/><path class="st5" d="M50.84 64.69H26.22c-.61 0-1.11.5-1.11 1.11v44.32h26.84V65.8c0-.61-.5-1.11-1.11-1.11z"/><circle cx="49.6" cy="87.41" r="1.34" fill="#fff"/><circle class="st5" cx="49.6" cy="87.41" r=".36"/><path class="st7" d="M80.41 76.69h-12V65.8c0-.61.5-1.11 1.11-1.11h10.89v12zM80.41 64.69h12v12h-12zM104.41 76.69h-12v-12h10.89c.61 0 1.11.5 1.11 1.11v10.89zM80.41 88.69H69.52c-.61 0-1.11-.5-1.11-1.11V76.69h12v12zM80.41 76.69h12v12h-12zM103.3 88.69H92.41v-12h12v10.89c0 .62-.49 1.11-1.11 1.11z"/><path class="st5" d="M121.08 5H3.88c-.42 0-.76-.34-.76-.76C3.12 1.9 5.02 0 7.36 0h110.23c2.34 0 4.24 1.9 4.24 4.24.01.42-.33.76-.75.76z"/></svg>